<?xml version="1.0" encoding="utf-8"?>
<!-- Generator: Adobe Illustrator 22.0.1, SVG Export Plug-In . SVG Version: 6.00 Build 0)  -->
<svg version="1.1" id="Слой_1" xmlns="http://www.w3.org/2000/svg" xmlns:xlink="http://www.w3.org/1999/xlink" x="0px" y="0px"
	 viewBox="0 0 16.6 20.9" style="enable-background:new 0 0 16.6 20.9;" xml:space="preserve">
<style type="text/css">
	.st0{fill:#04C275;}
</style>
<path class="st0" d="M2,20.8L2,20.8c-1.1,0-2-0.9-2-2l0-6c0-1.1,0.9-2,2-2h0c1.1,0,2,0.9,2,2v6C4,19.9,3.1,20.8,2,20.8z"/>
<path class="st0" d="M8.3,20.8L8.3,20.8c-1.1,0-2-0.9-2-2v-11c0-1.1,0.9-2,2-2h0c1.1,0,2,0.9,2,2v11C10.3,19.9,9.4,20.8,8.3,20.8z"
	/>
<path class="st0" d="M14.6,20.9L14.6,20.9c-1.1,0-2-0.9-2-2V2c0-1.1,0.9-2,2-2l0,0c1.1,0,2,0.9,2,2v16.9
	C16.6,20,15.7,20.9,14.6,20.9z"/>
</svg>
