<?xml version="1.0" encoding="utf-8"?>
<!-- Generator: Adobe Illustrator 22.0.1, SVG Export Plug-In . SVG Version: 6.00 Build 0)  -->
<svg version="1.1" id="Слой_1" xmlns="http://www.w3.org/2000/svg" xmlns:xlink="http://www.w3.org/1999/xlink" x="0px" y="0px"
	 viewBox="0 0 442.4 483" style="enable-background:new 0 0 442.4 483;" xml:space="preserve">
<style type="text/css">
	.st0{display:none;fill:#333645;}
	.st1{opacity:5.000000e-02;fill:none;stroke:#F2F2F2;stroke-miterlimit:10;enable-background:new    ;}
	.st2{opacity:0.15;fill:none;stroke:#F2F2F2;stroke-miterlimit:10;enable-background:new    ;}
	.st3{opacity:0.3;fill:none;stroke:#F2F2F2;stroke-miterlimit:10;enable-background:new    ;}
	.st4{opacity:0.6;fill:none;stroke:#F2F2F2;stroke-miterlimit:10;enable-background:new    ;}
	.st5{fill:url(#SVGID_1_);}
	.st6{fill:#747891;}
	.st7{fill:url(#SVGID_2_);}
	.st8{fill:url(#SVGID_3_);}
	.st9{fill:#333645;}
	.st10{fill:url(#SVGID_4_);}
	.st11{fill:url(#SVGID_5_);}
	.st12{fill:#FFFFFF;}
	.st13{fill:#F8646C;}
	.st14{opacity:0.5;fill:#70737E;enable-background:new    ;}
	.st15{opacity:0.6;fill:#747891;enable-background:new    ;}
	.st16{opacity:0.4;fill:#747891;enable-background:new    ;}
	.st17{opacity:0.8;fill:#70737E;enable-background:new    ;}
	.st18{opacity:0.4;fill:#70737E;enable-background:new    ;}
	.st19{opacity:0.8;fill:#747891;enable-background:new    ;}
	.st20{opacity:0.2;fill:#747891;enable-background:new    ;}
	.st21{opacity:0.1;fill:#747891;enable-background:new    ;}
</style>
<rect x="-23.5" y="-8.5" class="st0" width="500" height="500"/>
<path class="st1" d="M220.3,480L91.8,413.9c-6.6-3.4-6.6-9,0-12.4l128.5-66.1c6.6-3.4,17.4-3.4,24.1,0l128.5,66.1
	c6.6,3.4,6.6,9,0,12.4L244.4,480C237.7,483.4,226.9,483.4,220.3,480z"/>
<path class="st2" d="M220.3,459.3L91.8,393.1c-6.6-3.4-6.6-9,0-12.4l128.5-66.1c6.6-3.4,17.4-3.4,24.1,0l128.5,66.1
	c6.6,3.4,6.6,9,0,12.4l-128.5,66.1C237.7,462.7,226.9,462.7,220.3,459.3z"/>
<path class="st3" d="M220.3,438.5L91.8,372.4c-6.6-3.4-6.6-9,0-12.4l128.5-66.1c6.6-3.4,17.4-3.4,24.1,0L372.9,360
	c6.6,3.4,6.6,9,0,12.4l-128.6,66.1C237.7,441.9,226.9,441.9,220.3,438.5z"/>
<path class="st4" d="M220.3,416.9l-129-66.3c-6.6-3.4-6.6-9,0-12.4l129-66.3c6.6-3.4,17.5-3.4,24.1,0l129,66.3c6.6,3.4,6.6,9,0,12.4
	l-129,66.3C237.8,420.3,227,420.3,220.3,416.9z"/>
<linearGradient id="SVGID_1_" gradientUnits="userSpaceOnUse" x1="86.6" y1="-123.8" x2="377.9" y2="-123.8" gradientTransform="matrix(1 0 0 1 0 467.9)">
	<stop  offset="0" style="stop-color:#595C70"/>
	<stop  offset="0.44" style="stop-color:#595C70"/>
	<stop  offset="0.4442" style="stop-color:#585B6F"/>
	<stop  offset="0.5774" style="stop-color:#4C4F61"/>
	<stop  offset="0.7381" style="stop-color:#444759"/>
	<stop  offset="1" style="stop-color:#424556"/>
</linearGradient>
<path class="st5" d="M377.8,343.4l0.1-68.4H250.5l-6.2-3.2c-6.6-3.4-17.4-3.4-24.1,0L214,275H86.6l0.2,68.3c-0.4,2.5,1.2,5.1,4.9,7
	l128.5,66.1c6.6,3.4,17.4,3.4,24.1,0l128.5-66.1c2.9-1.5,4.6-3.4,4.9-5.4l0,0v-0.1C377.8,344.3,377.8,343.8,377.8,343.4z"/>
<path class="st6" d="M220.3,346.2L91.8,280.1c-6.6-3.4-6.6-9,0-12.4l128.5-66.1c6.6-3.4,17.4-3.4,24.1,0l128.5,66.1
	c6.6,3.4,6.6,9,0,12.4l-128.5,66.1C237.7,349.6,226.9,349.6,220.3,346.2z"/>
<linearGradient id="SVGID_2_" gradientUnits="userSpaceOnUse" x1="402.6" y1="-221.3" x2="402.6" y2="-221.3" gradientTransform="matrix(1 0 0 1 0 467.9)">
	<stop  offset="0" style="stop-color:#595C70"/>
	<stop  offset="0.44" style="stop-color:#595C70"/>
	<stop  offset="0.4442" style="stop-color:#585B6F"/>
	<stop  offset="0.5774" style="stop-color:#4C4F61"/>
	<stop  offset="0.7381" style="stop-color:#444759"/>
	<stop  offset="1" style="stop-color:#424556"/>
</linearGradient>
<path class="st7" d="M402.6,246.6"/>
<path class="st4" d="M220.2,346.8l-129-66.3c-6.6-3.4-6.6-9,0-12.4l129-66.3c6.6-3.4,17.5-3.4,24.1,0l129,66.3c6.6,3.4,6.6,9,0,12.4
	l-129,66.3C237.7,350.2,226.9,350.2,220.2,346.8z"/>
<path class="st2" d="M222.2,335.6l-109.1-56.1c-5.6-2.9-5.6-7.6,0-10.5l109.1-56.1c5.6-2.9,14.8-2.9,20.4,0L351.7,269
	c5.6,2.9,5.6,7.6,0,10.5l-109.1,56.1C237,338.5,227.8,338.5,222.2,335.6z"/>
<linearGradient id="SVGID_3_" gradientUnits="userSpaceOnUse" x1="112.6" y1="-231.5" x2="403.7" y2="-231.5" gradientTransform="matrix(1 0 0 1 0 467.9)">
	<stop  offset="0" style="stop-color:#595C70"/>
	<stop  offset="0.44" style="stop-color:#595C70"/>
	<stop  offset="0.4442" style="stop-color:#585B6F"/>
	<stop  offset="0.5774" style="stop-color:#4C4F61"/>
	<stop  offset="0.7381" style="stop-color:#444759"/>
	<stop  offset="1" style="stop-color:#424556"/>
</linearGradient>
<path class="st8" d="M403.7,236.4v-18.9h-29.6l-103.9-53.4c-6.6-3.4-17.4-3.4-24.1,0l-103.9,53.4h-29.6v18.9l0,0
	c0,2.2,1.7,4.5,5,6.2l128.5,66.1c6.6,3.4,17.4,3.4,24.1,0l128.5-66.1C402.1,240.9,403.7,238.8,403.7,236.4z"/>
<path class="st6" d="M246.2,290l-128.5-66.1c-6.6-3.4-6.6-9,0-12.4l128.5-66.1c6.6-3.4,17.4-3.4,24.1,0l128.5,66.1
	c6.6,3.4,6.6,9,0,12.4L270.3,290C263.6,293.4,252.8,293.4,246.2,290z"/>
<path class="st4" d="M246.1,290.2l-129-66.3c-6.6-3.4-6.6-9,0-12.4l129-66.3c6.6-3.4,17.5-3.4,24.1,0l129,66.3c6.6,3.4,6.6,9,0,12.4
	l-129,66.3C263.6,293.6,252.8,293.6,246.1,290.2z"/>
<path class="st2" d="M248.1,279L139,222.8c-5.6-2.9-5.6-7.6,0-10.5l109.1-56.1c5.6-2.9,14.8-2.9,20.4,0l109.1,56.1
	c5.6,2.9,5.6,7.6,0,10.5L268.5,279C262.9,281.9,253.7,281.9,248.1,279z"/>
<path class="st9" d="M226,292.5l-88.1-45.3c-0.9-0.5-1.2-1.6-0.8-2.4l0,0c0.5-0.9,1.6-1.2,2.4-0.8l88.1,45.3
	c0.9,0.5,1.2,1.6,0.8,2.4l0,0C228,292.6,226.9,292.9,226,292.5z"/>
<linearGradient id="SVGID_4_" gradientUnits="userSpaceOnUse" x1="41.2" y1="-244.8" x2="318.2" y2="-244.8" gradientTransform="matrix(1 0 0 1 0 467.9)">
	<stop  offset="0" style="stop-color:#595C70"/>
	<stop  offset="0.44" style="stop-color:#595C70"/>
	<stop  offset="0.4442" style="stop-color:#585B6F"/>
	<stop  offset="0.5774" style="stop-color:#4C4F61"/>
	<stop  offset="0.7381" style="stop-color:#444759"/>
	<stop  offset="1" style="stop-color:#424556"/>
</linearGradient>
<path class="st10" d="M318.2,223.1v-17.9H290l-98.9-50.9c-6.3-3.2-16.6-3.2-22.9,0l-98.9,50.9H41.2v17.9l0,0c0,2.1,1.6,4.3,4.7,5.9
	l122.3,62.9c6.3,3.2,16.6,3.2,22.9,0L313.5,229C316.6,227.3,318.2,225.3,318.2,223.1z"/>
<path class="st6" d="M168.2,274L45.9,211.1c-6.3-3.2-6.3-8.5,0-11.8l122.3-62.9c6.3-3.2,16.6-3.2,22.9,0l122.4,62.9
	c6.3,3.2,6.3,8.5,0,11.8L191.2,274C184.9,277.2,174.5,277.2,168.2,274z"/>
<path class="st4" d="M168.2,274.2L45.5,211.1c-6.3-3.2-6.3-8.6,0-11.8l122.7-63.1c6.3-3.2,16.7-3.3,23,0l122.7,63.1
	c6.3,3.2,6.3,8.6,0,11.8l-122.7,63.1C184.9,277.5,174.5,277.5,168.2,274.2z"/>
<path class="st2" d="M170.1,263.6L66.3,210.1c-5.3-2.7-5.3-7.2,0-10l103.8-53.4c5.3-2.7,14.1-2.7,19.4,0l103.8,53.4
	c5.3,2.7,5.3,7.2,0,10l-103.8,53.4C184.2,266.3,175.4,266.3,170.1,263.6z"/>
<linearGradient id="SVGID_5_" gradientUnits="userSpaceOnUse" x1="86.5" y1="-322.6" x2="377.8" y2="-322.6" gradientTransform="matrix(1 0 0 1 0 467.9)">
	<stop  offset="0" style="stop-color:#595C70"/>
	<stop  offset="0.44" style="stop-color:#595C70"/>
	<stop  offset="0.4442" style="stop-color:#585B6F"/>
	<stop  offset="0.5774" style="stop-color:#4C4F61"/>
	<stop  offset="0.7381" style="stop-color:#444759"/>
	<stop  offset="1" style="stop-color:#424556"/>
</linearGradient>
<path class="st11" d="M377.7,144.6l0.1-68.4H250.5l-6.2-3.2c-6.6-3.4-17.4-3.4-24.1,0l-6.2,3.2H86.5l0.2,68.3
	c-0.4,2.5,1.2,5.1,4.9,7l128.5,66.1c6.6,3.4,17.4,3.4,24.1,0l128.5-66.1c2.9-1.5,4.6-3.4,4.9-5.4l0,0V146
	C377.8,145.6,377.8,145.1,377.7,144.6z"/>
<path class="st6" d="M220.3,147.8L91.7,81.7c-6.6-3.4-6.6-9,0-12.4L220.2,3.1c6.6-3.4,17.4-3.4,24.1,0l128.5,66.1
	c6.6,3.4,6.6,9,0,12.4l-128.5,66.1C237.7,151.3,226.9,151.3,220.3,147.8z"/>
<path class="st4" d="M220.1,148.1l-129-66.3c-6.6-3.4-6.6-9,0-12.4L220.1,3c6.6-3.4,17.5-3.4,24.1,0l129,66.3c6.6,3.4,6.6,9,0,12.4
	l-129,66.3C237.7,151.4,226.8,151.4,220.1,148.1z"/>
<path class="st2" d="M222.1,136.8L113,80.8c-5.6-2.9-5.6-7.6,0-10.5l109.1-56.1c5.6-2.9,14.8-2.9,20.4,0l109.1,56.1
	c5.6,2.9,5.6,7.6,0,10.5l-109.1,56.1C236.9,139.8,227.7,139.8,222.1,136.8z"/>
<path class="st9" d="M191.5,150.4l-88.1-45.3c-0.9-0.5-1.2-1.6-0.8-2.4l0,0c0.5-0.9,1.6-1.2,2.4-0.8l88.1,45.3
	c0.9,0.5,1.2,1.6,0.8,2.4l0,0C193.4,150.6,192.3,150.9,191.5,150.4z"/>
<path class="st9" d="M191.1,159.1L103,113.8c-0.9-0.5-1.2-1.6-0.8-2.4l0,0c0.5-0.9,1.6-1.2,2.4-0.8l88.1,45.3
	c0.9,0.5,1.2,1.6,0.8,2.4l0,0C193.1,159.3,192,159.6,191.1,159.1z"/>
<path class="st9" d="M190.7,167.6l-88.1-45.3c-0.9-0.5-1.2-1.6-0.8-2.4l0,0c0.5-0.9,1.6-1.2,2.4-0.8l88.1,45.3
	c0.9,0.5,1.2,1.6,0.8,2.4l0,0C192.7,167.8,191.6,168.1,190.7,167.6z"/>
<path class="st9" d="M146.2,274.7l-88.1-45.3c-0.9-0.5-1.2-1.6-0.8-2.4l0,0c0.5-0.9,1.6-1.2,2.4-0.8l88.1,45.3
	c0.9,0.5,1.2,1.6,0.8,2.4l0,0C148.2,274.8,147.1,275.2,146.2,274.7z"/>
<path class="st9" d="M192.1,351.5L104,306.2c-0.9-0.5-1.2-1.6-0.8-2.4l0,0c0.5-0.9,1.6-1.2,2.4-0.8l88.1,45.3
	c0.9,0.5,1.2,1.6,0.8,2.4l0,0C194.1,351.6,193,351.9,192.1,351.5z"/>
<path class="st9" d="M191.7,360.1l-88.1-45.3c-0.9-0.5-1.2-1.6-0.8-2.4l0,0c0.5-0.9,1.6-1.2,2.4-0.8l88.1,45.3
	c0.9,0.5,1.2,1.6,0.8,2.4l0,0C193.7,360.2,192.6,360.6,191.7,360.1z"/>
<path class="st9" d="M191.4,368.6l-88.1-45.3c-0.9-0.5-1.2-1.6-0.8-2.4l0,0c0.5-0.9,1.6-1.2,2.4-0.8l88.1,45.3
	c0.9,0.5,1.2,1.6,0.8,2.4l0,0C193.4,368.7,192.3,369,191.4,368.6z"/>
<g>
	<g>
		<path class="st12" d="M258.4,358.4l-7.5,4c-0.8,0.4-1.7-0.2-1.7-1v-6.2c0-0.4,0.2-0.8,0.6-1.1l7.5-3.9c0.8-0.4,1.7,0.2,1.7,1.1
			v6.1C259,357.8,258.8,358.2,258.4,358.4z"/>
	</g>
</g>
<g>
	<g>
		<path class="st12" d="M305.7,334.2l-7.5,4c-0.8,0.4-1.7-0.2-1.7-1V331c0-0.4,0.2-0.8,0.6-1.1l7.5-3.9c0.8-0.4,1.7,0.2,1.7,1.1v6.1
			C306.3,333.6,306.1,334,305.7,334.2z"/>
	</g>
</g>
<g>
	<g>
		<path class="st12" d="M369.5,344.2l-7.5,4c-0.8,0.4-1.7-0.2-1.7-1V341c0-0.4,0.2-0.8,0.6-1.1l7.5-3.9c0.8-0.4,1.7,0.2,1.7,1.1v6.1
			C370.2,343.5,369.9,344,369.5,344.2z"/>
	</g>
</g>
<g>
	<g>
		<path class="st12" d="M288.5,295.3l-7.5,4c-0.8,0.4-1.7-0.2-1.7-1V292c0-0.4,0.2-0.8,0.6-1.1l7.5-3.9c0.8-0.4,1.7,0.2,1.7,1.1v6.1
			C289.2,294.7,288.9,295.1,288.5,295.3z"/>
	</g>
</g>
<g>
	<g>
		<path class="st12" d="M369.5,103.9l-7.5,4c-0.8,0.4-1.7-0.2-1.7-1v-6.2c0-0.4,0.2-0.8,0.6-1.1l7.5-3.9c0.8-0.4,1.7,0.2,1.7,1.1
			v6.1C370.1,103.3,369.9,103.7,369.5,103.9z"/>
	</g>
</g>
<g>
	<g>
		<path class="st12" d="M236.5,264.7l-7.5,4c-0.8,0.4-1.7-0.2-1.7-1v-6.2c0-0.4,0.2-0.8,0.6-1.1l7.5-3.9c0.8-0.4,1.7,0.2,1.7,1.1
			v6.1C237.1,264.1,236.9,264.5,236.5,264.7z"/>
	</g>
</g>
<g>
	<g>
		<path class="st12" d="M289.5,146.3l-7.5,4c-0.8,0.4-1.7-0.2-1.7-1v-6.2c0-0.4,0.2-0.8,0.6-1.1l7.5-3.9c0.8-0.4,1.7,0.2,1.7,1.1
			v6.1C290.1,145.6,289.9,146.1,289.5,146.3z"/>
	</g>
</g>
<g>
	<g>
		<path class="st12" d="M305.7,138.1l-7.5,4c-0.8,0.4-1.7-0.2-1.7-1v-6.2c0-0.4,0.2-0.8,0.6-1.1l7.5-3.9c0.8-0.4,1.7,0.2,1.7,1.1
			v6.1C306.3,137.4,306.1,137.8,305.7,138.1z"/>
	</g>
</g>
<g>
	<g>
		<path class="st13" d="M289.7,343l-7.5,4c-0.8,0.4-1.7-0.2-1.7-1v-6.2c0-0.4,0.2-0.8,0.6-1.1l7.5-3.9c0.8-0.4,1.7,0.2,1.7,1.1v6.1
			C290.4,342.4,290.1,342.8,289.7,343z"/>
	</g>
</g>
<g>
	<g>
		<path class="st13" d="M207,279.8l-7.5,4c-0.8,0.4-1.7-0.2-1.7-1v-6.3c0-0.4,0.2-0.8,0.6-1.1l7.5-3.9c0.8-0.4,1.7,0.2,1.7,1.1v6.1
			C207.6,279.2,207.4,279.6,207,279.8z"/>
	</g>
</g>
<g>
	<g>
		<path class="st13" d="M257.9,160.9l-7.5,4c-0.8,0.4-1.7-0.2-1.7-1v-6.2c0-0.4,0.2-0.8,0.6-1.1l7.5-3.9c0.8-0.4,1.7,0.2,1.7,1.1
			v6.1C258.5,160.3,258.3,160.8,257.9,160.9z"/>
	</g>
</g>
<g>
	<g>
		<path class="st13" d="M391.3,242.4l-7.5,4c-0.8,0.4-1.7-0.2-1.7-1v-6.2c0-0.4,0.2-0.8,0.6-1.1l7.5-3.9c0.8-0.4,1.7,0.2,1.7,1.1
			v6.1C391.9,241.8,391.7,242.3,391.3,242.4z"/>
	</g>
</g>
<g>
	<g>
		<path class="st13" d="M274.1,367l-7.5,4c-0.8,0.4-1.7-0.2-1.7-1v-6.2c0-0.4,0.2-0.8,0.6-1.1l7.5-3.9c0.8-0.4,1.7,0.2,1.7,1.1v6.1
			C274.7,366.4,274.4,366.8,274.1,367z"/>
	</g>
</g>
<path class="st14" d="M274.1,350.8l-7.5,4c-0.8,0.4-1.7-0.2-1.7-1v-6.3c0-0.4,0.2-0.8,0.6-1.1l7.5-3.9c0.8-0.4,1.7,0.2,1.7,1.1v6.1
	C274.8,350.2,274.5,350.6,274.1,350.8z"/>
<path class="st14" d="M308.3,227.6l-7.5,4c-0.8,0.4-1.7-0.2-1.7-1v-6.2c0-0.4,0.2-0.8,0.6-1.1l7.5-3.9c0.8-0.4,1.7,0.2,1.7,1.1v6.1
	C309,226.9,308.7,227.3,308.3,227.6z"/>
<path class="st14" d="M251.3,257.4l-7.5,4c-0.8,0.4-1.7-0.2-1.7-1v-6.2c0-0.4,0.2-0.8,0.6-1.1l7.5-3.9c0.8-0.4,1.7,0.2,1.7,1.1v6.1
	C251.9,256.8,251.7,257.2,251.3,257.4z"/>
<path class="st14" d="M274,153.3l-7.5,4c-0.8,0.4-1.7-0.2-1.7-1v-6.2c0-0.4,0.2-0.8,0.6-1.1l7.5-3.9c0.8-0.4,1.7,0.2,1.7,1.1v6.1
	C274.6,152.8,274.4,153.1,274,153.3z"/>
<path class="st14" d="M289.5,160.6l-7.5,4c-0.8,0.4-1.7-0.2-1.7-1v-6.2c0-0.4,0.2-0.8,0.6-1.1l7.5-3.9c0.8-0.4,1.7,0.2,1.7,1.1v6.1
	C290.1,159.9,289.9,160.3,289.5,160.6z"/>
<path class="st14" d="M354.3,151.1l-7.5,4c-0.8,0.4-1.7-0.2-1.7-1v-6.2c0-0.4,0.2-0.8,0.6-1.1l7.5-3.9c0.8-0.4,1.7,0.2,1.7,1.1v6.1
	C354.9,150.6,354.7,150.9,354.3,151.1z"/>
<path class="st14" d="M274,167.6l-7.5,4c-0.8,0.4-1.7-0.2-1.7-1v-6.2c0-0.4,0.2-0.8,0.6-1.1l7.5-3.9c0.8-0.4,1.7,0.2,1.7,1.1v6.1
	C274.6,166.9,274.4,167.3,274,167.6z"/>
<path class="st14" d="M221.1,272.6l-7.5,4c-0.8,0.4-1.7-0.2-1.7-1v-6.2c0-0.4,0.2-0.8,0.6-1.1l7.5-3.9c0.8-0.4,1.7,0.2,1.7,1.1v6.1
	C221.8,272,221.5,272.4,221.1,272.6z"/>
<path class="st14" d="M377,250.2l-7.5,4c-0.8,0.4-1.7-0.2-1.7-1V247c0-0.4,0.2-0.8,0.6-1.1l7.5-3.9c0.8-0.4,1.7,0.2,1.7,1.1v6.1
	C377.6,249.6,377.3,249.9,377,250.2z"/>
<path class="st14" d="M289.7,359.3l-7.5,4c-0.8,0.4-1.7-0.2-1.7-1V356c0-0.4,0.2-0.8,0.6-1.1l7.5-3.9c0.8-0.4,1.7,0.2,1.7,1.1v6.1
	C290.4,358.7,290.1,359.1,289.7,359.3z"/>
<path class="st14" d="M354.3,351.8l-7.5,4c-0.8,0.4-1.7-0.2-1.7-1v-6.3c0-0.4,0.2-0.8,0.6-1.1l7.5-3.9c0.8-0.4,1.7,0.2,1.7,1.1v6.1
	C354.9,351.2,354.7,351.6,354.3,351.8z"/>
<circle class="st15" cx="429.4" cy="113.8" r="1.5"/>
<circle class="st16" cx="429.4" cy="120.2" r="1.5"/>
<circle class="st6" cx="429.4" cy="107.4" r="1.5"/>
<circle class="st13" cx="440.9" cy="187.3" r="1.5"/>
<circle class="st14" cx="354.9" cy="36.2" r="1.5"/>
<circle class="st14" cx="412.8" cy="307.8" r="1.5"/>
<circle class="st13" cx="428.8" cy="404.2" r="1.5"/>
<circle class="st13" cx="18.5" cy="322.5" r="1.5"/>
<circle class="st13" cx="1.5" cy="139" r="1.5"/>
<circle class="st17" cx="62.3" cy="36.2" r="1.5"/>
<circle class="st18" cx="72" cy="463.3" r="1.5"/>
<circle class="st15" cx="429.4" cy="101" r="1.5"/>
<circle class="st16" cx="42.7" cy="160.7" r="1.5"/>
<circle class="st15" cx="42.7" cy="154.3" r="1.5"/>
<circle class="st19" cx="42.7" cy="147.9" r="1.5"/>
<circle class="st16" cx="119.2" cy="18.6" r="1.5"/>
<circle class="st15" cx="119.2" cy="25" r="1.5"/>
<circle class="st20" cx="119.2" cy="12.1" r="1.5"/>
<circle class="st21" cx="119.2" cy="5.7" r="1.5"/>
<circle class="st15" cx="50.5" cy="404.6" r="1.5"/>
<circle class="st19" cx="50.5" cy="411" r="1.5"/>
<circle class="st16" cx="50.5" cy="398.2" r="1.5"/>
<circle class="st20" cx="50.5" cy="391.8" r="1.5"/>
<circle class="st20" cx="373.4" cy="448.8" r="1.5"/>
<circle class="st16" cx="373.4" cy="442.3" r="1.5"/>
<circle class="st15" cx="373.4" cy="435.9" r="1.5"/>
</svg>
