<?xml version="1.0" encoding="utf-8"?>
<!-- Generator: Adobe Illustrator 22.0.1, SVG Export Plug-In . SVG Version: 6.00 Build 0)  -->
<svg version="1.1" id="Layer_1" xmlns="http://www.w3.org/2000/svg" xmlns:xlink="http://www.w3.org/1999/xlink" x="0px" y="0px"
	 viewBox="0 0 537.9 301.1" style="enable-background:new 0 0 537.9 301.1;" xml:space="preserve">
<style type="text/css">
	.st0{clip-path:url(#SVGID_2_);}
	.st1{clip-path:url(#SVGID_4_);}
	.st2{clip-path:url(#SVGID_6_);}
	.st3{clip-path:url(#SVGID_90_);}
	.st4{clip-path:url(#SVGID_92_);}
	.st5{display:none;clip-path:url(#SVGID_92_);}
	.st6{fill:#FFFFFF;}
</style>
<g>
	<defs>
		<polyline id="SVGID_1_" points="854.2,487 854.2,-24.2 -27.7,-24.2 -27.7,487 		"/>
	</defs>
	<clipPath id="SVGID_2_">
		<use xlink:href="#SVGID_1_"  style="overflow:visible;"/>
	</clipPath>
	<g class="st0">
		<defs>
			<polyline id="SVGID_3_" points="-27.7,487 -27.7,-24.2 854.2,-24.2 854.2,487 			"/>
		</defs>
		<clipPath id="SVGID_4_">
			<use xlink:href="#SVGID_3_"  style="overflow:visible;"/>
		</clipPath>
		<g class="st1">
			<g>
				<defs>
					<polyline id="SVGID_5_" points="855.2,487 855.2,-23.7 -26.7,-23.7 -26.7,487 					"/>
				</defs>
				<clipPath id="SVGID_6_">
					<use xlink:href="#SVGID_5_"  style="overflow:visible;"/>
				</clipPath>
				<g class="st2">
					<defs>
						<polyline id="SVGID_7_" points="855.2,487 855.2,248.8 855.2,142.8 855.2,-23.7 729.3,-23.7 190.3,-23.7 -26.7,-23.7 
							-26.7,142.8 -26.7,248.8 -26.7,487 190.3,487 						"/>
					</defs>
					<clipPath id="SVGID_8_">
						<use xlink:href="#SVGID_7_"  style="overflow:visible;"/>
					</clipPath>
				</g>
			</g>
		</g>
	</g>
	<g class="st0">
		<defs>
			<polyline id="SVGID_9_" points="-27.7,487 -27.7,-24.2 854.2,-24.2 854.2,487 			"/>
		</defs>
		<clipPath id="SVGID_10_">
			<use xlink:href="#SVGID_9_"  style="overflow:visible;"/>
		</clipPath>
	</g>
	<g class="st0">
		<defs>
			<polyline id="SVGID_11_" points="-27.7,487 -27.7,-24.2 854.2,-24.2 854.2,487 			"/>
		</defs>
		<clipPath id="SVGID_12_">
			<use xlink:href="#SVGID_11_"  style="overflow:visible;"/>
		</clipPath>
	</g>
	<g class="st0">
		<defs>
			<polyline id="SVGID_13_" points="-27.7,487 -27.7,-24.2 854.2,-24.2 854.2,487 			"/>
		</defs>
		<clipPath id="SVGID_14_">
			<use xlink:href="#SVGID_13_"  style="overflow:visible;"/>
		</clipPath>
	</g>
	<g class="st0">
		<defs>
			<polyline id="SVGID_15_" points="-27.7,487 -27.7,-24.2 854.2,-24.2 854.2,487 			"/>
		</defs>
		<clipPath id="SVGID_16_">
			<use xlink:href="#SVGID_15_"  style="overflow:visible;"/>
		</clipPath>
	</g>
	<g class="st0">
		<defs>
			<polyline id="SVGID_17_" points="-27.7,487 -27.7,-24.2 854.2,-24.2 854.2,487 			"/>
		</defs>
		<clipPath id="SVGID_18_">
			<use xlink:href="#SVGID_17_"  style="overflow:visible;"/>
		</clipPath>
	</g>
	<g class="st0">
		<defs>
			<polyline id="SVGID_19_" points="-27.7,487 -27.7,-24.2 854.2,-24.2 854.2,487 			"/>
		</defs>
		<clipPath id="SVGID_20_">
			<use xlink:href="#SVGID_19_"  style="overflow:visible;"/>
		</clipPath>
	</g>
	<g class="st0">
		<defs>
			<polyline id="SVGID_21_" points="-27.7,487 -27.7,-24.2 854.2,-24.2 854.2,487 			"/>
		</defs>
		<clipPath id="SVGID_22_">
			<use xlink:href="#SVGID_21_"  style="overflow:visible;"/>
		</clipPath>
	</g>
	<g class="st0">
		<defs>
			<polyline id="SVGID_23_" points="-27.7,487 -27.7,-24.2 854.2,-24.2 854.2,487 			"/>
		</defs>
		<clipPath id="SVGID_24_">
			<use xlink:href="#SVGID_23_"  style="overflow:visible;"/>
		</clipPath>
	</g>
	<g class="st0">
		<defs>
			<polyline id="SVGID_25_" points="-27.7,487 -27.7,-24.2 854.2,-24.2 854.2,487 			"/>
		</defs>
		<clipPath id="SVGID_26_">
			<use xlink:href="#SVGID_25_"  style="overflow:visible;"/>
		</clipPath>
	</g>
	<g class="st0">
		<defs>
			<polyline id="SVGID_27_" points="-27.7,487 -27.7,-24.2 854.2,-24.2 854.2,487 			"/>
		</defs>
		<clipPath id="SVGID_28_">
			<use xlink:href="#SVGID_27_"  style="overflow:visible;"/>
		</clipPath>
	</g>
	<g class="st0">
		<defs>
			<polyline id="SVGID_29_" points="-27.7,487 -27.7,-24.2 854.2,-24.2 854.2,487 			"/>
		</defs>
		<clipPath id="SVGID_30_">
			<use xlink:href="#SVGID_29_"  style="overflow:visible;"/>
		</clipPath>
	</g>
	<g class="st0">
		<defs>
			<polyline id="SVGID_31_" points="-27.7,487 -27.7,-24.2 854.2,-24.2 854.2,487 			"/>
		</defs>
		<clipPath id="SVGID_32_">
			<use xlink:href="#SVGID_31_"  style="overflow:visible;"/>
		</clipPath>
	</g>
	<g class="st0">
		<defs>
			<polyline id="SVGID_33_" points="-27.7,487 -27.7,-24.2 854.2,-24.2 854.2,487 			"/>
		</defs>
		<clipPath id="SVGID_34_">
			<use xlink:href="#SVGID_33_"  style="overflow:visible;"/>
		</clipPath>
	</g>
	<g class="st0">
		<defs>
			<polyline id="SVGID_35_" points="-27.7,487 -27.7,-24.2 854.2,-24.2 854.2,487 			"/>
		</defs>
		<clipPath id="SVGID_36_">
			<use xlink:href="#SVGID_35_"  style="overflow:visible;"/>
		</clipPath>
	</g>
	<g class="st0">
		<defs>
			<polyline id="SVGID_37_" points="-27.7,487 -27.7,-24.2 854.2,-24.2 854.2,487 			"/>
		</defs>
		<clipPath id="SVGID_38_">
			<use xlink:href="#SVGID_37_"  style="overflow:visible;"/>
		</clipPath>
	</g>
	<g class="st0">
		<defs>
			<polyline id="SVGID_39_" points="-27.7,487 -27.7,-24.2 854.2,-24.2 854.2,487 			"/>
		</defs>
		<clipPath id="SVGID_40_">
			<use xlink:href="#SVGID_39_"  style="overflow:visible;"/>
		</clipPath>
	</g>
	<g class="st0">
		<defs>
			<polyline id="SVGID_41_" points="-27.7,487 -27.7,-24.2 854.2,-24.2 854.2,487 			"/>
		</defs>
		<clipPath id="SVGID_42_">
			<use xlink:href="#SVGID_41_"  style="overflow:visible;"/>
		</clipPath>
	</g>
	<g class="st0">
		<defs>
			<polyline id="SVGID_43_" points="-27.7,487 -27.7,-24.2 854.2,-24.2 854.2,487 			"/>
		</defs>
		<clipPath id="SVGID_44_">
			<use xlink:href="#SVGID_43_"  style="overflow:visible;"/>
		</clipPath>
	</g>
	<g class="st0">
		<defs>
			<polyline id="SVGID_45_" points="-27.7,487 -27.7,-24.2 854.2,-24.2 854.2,487 			"/>
		</defs>
		<clipPath id="SVGID_46_">
			<use xlink:href="#SVGID_45_"  style="overflow:visible;"/>
		</clipPath>
	</g>
	<g class="st0">
		<defs>
			<polyline id="SVGID_47_" points="-27.7,487 -27.7,-24.2 854.2,-24.2 854.2,487 			"/>
		</defs>
		<clipPath id="SVGID_48_">
			<use xlink:href="#SVGID_47_"  style="overflow:visible;"/>
		</clipPath>
	</g>
	<g class="st0">
		<defs>
			<polyline id="SVGID_49_" points="-27.7,487 -27.7,-24.2 854.2,-24.2 854.2,487 			"/>
		</defs>
		<clipPath id="SVGID_50_">
			<use xlink:href="#SVGID_49_"  style="overflow:visible;"/>
		</clipPath>
	</g>
	<g class="st0">
		<defs>
			<polyline id="SVGID_51_" points="-27.7,487 -27.7,-24.2 854.2,-24.2 854.2,487 			"/>
		</defs>
		<clipPath id="SVGID_52_">
			<use xlink:href="#SVGID_51_"  style="overflow:visible;"/>
		</clipPath>
	</g>
	<g class="st0">
		<defs>
			<polyline id="SVGID_53_" points="-27.7,487 -27.7,-24.2 854.2,-24.2 854.2,487 			"/>
		</defs>
		<clipPath id="SVGID_54_">
			<use xlink:href="#SVGID_53_"  style="overflow:visible;"/>
		</clipPath>
	</g>
	<g class="st0">
		<defs>
			<polyline id="SVGID_55_" points="-27.7,487 -27.7,-24.2 854.2,-24.2 854.2,487 			"/>
		</defs>
		<clipPath id="SVGID_56_">
			<use xlink:href="#SVGID_55_"  style="overflow:visible;"/>
		</clipPath>
	</g>
	<g class="st0">
		<defs>
			<polyline id="SVGID_57_" points="-27.7,487 -27.7,-24.2 854.2,-24.2 854.2,487 			"/>
		</defs>
		<clipPath id="SVGID_58_">
			<use xlink:href="#SVGID_57_"  style="overflow:visible;"/>
		</clipPath>
	</g>
	<g class="st0">
		<defs>
			<polyline id="SVGID_59_" points="-27.7,487 -27.7,-24.2 854.2,-24.2 854.2,487 			"/>
		</defs>
		<clipPath id="SVGID_60_">
			<use xlink:href="#SVGID_59_"  style="overflow:visible;"/>
		</clipPath>
	</g>
	<g class="st0">
		<defs>
			<polyline id="SVGID_61_" points="-27.7,487 -27.7,-24.2 854.2,-24.2 854.2,487 			"/>
		</defs>
		<clipPath id="SVGID_62_">
			<use xlink:href="#SVGID_61_"  style="overflow:visible;"/>
		</clipPath>
	</g>
	<g class="st0">
		<defs>
			<polyline id="SVGID_63_" points="-27.7,487 -27.7,-24.2 854.2,-24.2 854.2,487 			"/>
		</defs>
		<clipPath id="SVGID_64_">
			<use xlink:href="#SVGID_63_"  style="overflow:visible;"/>
		</clipPath>
	</g>
	<g class="st0">
		<defs>
			<polyline id="SVGID_65_" points="-27.7,487 -27.7,-24.2 854.2,-24.2 854.2,487 			"/>
		</defs>
		<clipPath id="SVGID_66_">
			<use xlink:href="#SVGID_65_"  style="overflow:visible;"/>
		</clipPath>
	</g>
	<g class="st0">
		<defs>
			<polyline id="SVGID_67_" points="-27.7,487 -27.7,-24.2 854.2,-24.2 854.2,487 			"/>
		</defs>
		<clipPath id="SVGID_68_">
			<use xlink:href="#SVGID_67_"  style="overflow:visible;"/>
		</clipPath>
	</g>
	<g class="st0">
		<defs>
			<polyline id="SVGID_69_" points="-27.7,487 -27.7,-24.2 854.2,-24.2 854.2,487 			"/>
		</defs>
		<clipPath id="SVGID_70_">
			<use xlink:href="#SVGID_69_"  style="overflow:visible;"/>
		</clipPath>
	</g>
	<g class="st0">
		<defs>
			<polyline id="SVGID_71_" points="-27.7,487 -27.7,-24.2 854.2,-24.2 854.2,487 			"/>
		</defs>
		<clipPath id="SVGID_72_">
			<use xlink:href="#SVGID_71_"  style="overflow:visible;"/>
		</clipPath>
	</g>
	<g class="st0">
		<defs>
			<polyline id="SVGID_73_" points="-27.7,487 -27.7,-24.2 854.2,-24.2 854.2,487 			"/>
		</defs>
		<clipPath id="SVGID_74_">
			<use xlink:href="#SVGID_73_"  style="overflow:visible;"/>
		</clipPath>
	</g>
	<g class="st0">
		<defs>
			<polyline id="SVGID_75_" points="-27.7,487 -27.7,-24.2 854.2,-24.2 854.2,487 			"/>
		</defs>
		<clipPath id="SVGID_76_">
			<use xlink:href="#SVGID_75_"  style="overflow:visible;"/>
		</clipPath>
	</g>
	<g class="st0">
		<defs>
			<polyline id="SVGID_77_" points="-27.7,487 -27.7,-24.2 854.2,-24.2 854.2,487 			"/>
		</defs>
		<clipPath id="SVGID_78_">
			<use xlink:href="#SVGID_77_"  style="overflow:visible;"/>
		</clipPath>
	</g>
	<g class="st0">
		<defs>
			<polyline id="SVGID_79_" points="-27.7,487 -27.7,-24.2 854.2,-24.2 854.2,487 			"/>
		</defs>
		<clipPath id="SVGID_80_">
			<use xlink:href="#SVGID_79_"  style="overflow:visible;"/>
		</clipPath>
	</g>
	<g class="st0">
		<defs>
			<polyline id="SVGID_81_" points="-27.7,487 -27.7,-24.2 854.2,-24.2 854.2,487 			"/>
		</defs>
		<clipPath id="SVGID_82_">
			<use xlink:href="#SVGID_81_"  style="overflow:visible;"/>
		</clipPath>
	</g>
	<g class="st0">
		<defs>
			<polyline id="SVGID_83_" points="-27.7,487 -27.7,-24.2 854.2,-24.2 854.2,487 			"/>
		</defs>
		<clipPath id="SVGID_84_">
			<use xlink:href="#SVGID_83_"  style="overflow:visible;"/>
		</clipPath>
	</g>
	<g class="st0">
		<defs>
			<polyline id="SVGID_85_" points="-27.7,487 -27.7,-24.2 854.2,-24.2 854.2,487 			"/>
		</defs>
		<clipPath id="SVGID_86_">
			<use xlink:href="#SVGID_85_"  style="overflow:visible;"/>
		</clipPath>
	</g>
	<g class="st0">
		<defs>
			<polyline id="SVGID_87_" points="-27.7,487 -27.7,-24.2 854.2,-24.2 854.2,487 			"/>
		</defs>
		<clipPath id="SVGID_88_">
			<use xlink:href="#SVGID_87_"  style="overflow:visible;"/>
		</clipPath>
	</g>
	<g class="st0">
		<defs>
			<polyline id="SVGID_89_" points="-27.7,487 -27.7,-24.2 854.2,-24.2 854.2,487 			"/>
		</defs>
		<clipPath id="SVGID_90_">
			<use xlink:href="#SVGID_89_"  style="overflow:visible;"/>
		</clipPath>
		<polygon class="st3" points="289.9,253.9 291.1,253.9 299.7,253.9 308.5,242.2 309.8,237.4 313,234.5 313,227.7 321.6,221.6 
			321.6,209.2 319.5,208.1 319.8,203.8 325.4,192.7 327.7,192.7 336.9,176 336.9,171.7 335.1,170.8 330.6,172.4 329,173 
			327.9,172.1 328.1,170.8 325.9,168.1 323.2,168.1 320.9,165.4 319.3,161.7 317.7,158.4 315.5,154.7 315.3,149.1 314.6,146.2 
			313.4,145 312.3,138.3 310.9,136.2 308.7,136.2 307.1,136.2 305.3,134.9 299.7,134.9 295.4,134.9 296,133.1 293.1,133.1 
			289.9,132.2 291.3,136 289.9,136.9 289.9,135.3 285,134.4 285,133.3 282.3,132.2 278.7,132.2 278.7,130.3 278.7,128.5 
			278.7,126.5 278.7,125.4 278.7,124 278.7,123.3 275.7,122.2 265.6,122.2 262.4,124.9 258.5,126.3 255.8,127.6 255.8,126.5 
			255.8,125.1 253.6,125.1 253.6,126.7 252.2,129.7 248.4,132.2 248.4,134.6 248.4,136.9 248.4,140.1 238,146.8 238,162.2 
			238,165.1 238,167.4 241.1,170.8 245.9,175.5 246.1,178.5 249.3,180.7 249.5,182.8 260.1,183.4 263.3,181.2 269.6,180.5 
			276.6,183.4 277.7,194.3 281.4,199.7 282.3,204.5 283.4,206.9 283.2,210.8 283.2,214.8 280,217.1 281.1,226.1 283.2,231.8 
			284.3,242 285.4,250.3 287.5,253.9 289.3,254.8 		"/>
	</g>
	<polygon class="st0" points="290.9,253.9 292.1,253.9 300.7,253.9 309.5,242.2 310.8,237.4 314,234.5 314,227.7 322.6,221.6 
		322.6,209.2 320.5,208.1 320.8,203.8 326.4,192.7 328.7,192.7 337.9,176 337.9,171.7 336.1,170.8 331.6,172.4 330,173 328.9,172.1 
		329.1,170.8 326.9,168.1 324.2,168.1 321.9,165.4 320.3,161.7 318.7,158.4 316.5,154.7 316.3,149.1 315.6,146.2 314.4,145 
		313.3,138.3 311.9,136.2 309.7,136.2 308.1,136.2 306.3,134.9 300.7,134.9 296.4,134.9 297,133.1 294.1,133.1 290.3,132.4 
		292.3,136 291.4,135.3 290.9,135.3 286,134.4 286,133.3 283.3,132.2 279.7,132.2 279.7,130.3 279.7,128.5 279.7,126.5 279.7,125.4 
		279.7,124 279.7,123.3 276.7,122.2 266.6,122.2 263.4,124.9 259.5,126.3 256.8,127.6 256.8,126.5 256.8,125.1 254.6,125.1 
		254.6,126.7 253.2,129.7 249.4,132.2 249.4,134.6 249.4,136.9 249.4,140.1 239,146.8 239,162.2 239,165.1 239,167.4 242.1,170.8 
		246.9,175.5 247.1,178.5 250.3,180.7 250.5,182.8 261.1,183.4 264.3,181.2 270.6,180.5 277.6,183.4 278.7,194.3 282.4,199.7 
		283.3,204.5 284.4,206.9 284.2,210.8 284.2,214.8 281,217.1 282.1,226.1 284.2,231.8 285.3,242 286.4,250.3 288.5,253.9 
		290.3,254.8 	"/>
	<g class="st0">
		<defs>
			<polyline id="SVGID_91_" points="-27.7,487 -27.7,-24.2 854.2,-24.2 854.2,487 			"/>
		</defs>
		<clipPath id="SVGID_92_">
			<use xlink:href="#SVGID_91_"  style="overflow:visible;"/>
		</clipPath>
		<path class="st4" d="M325.8,236.4l2.1-1l0.9-0.9l0.7-0.9l0.9-0.4l0.4-0.8h0.6l0.4-4.2l0.3-1.3l1.3-0.4l0.6-1.2l1.5-1.2v-2.2v-6.4
			H333l-0.4,2.6l-1.3,0.3v1.8l-1.5,0.4l-1.4,1.1l0.1,1c0,0-0.7,1.7-0.6,2c0.1,0.2-0.4,0.9-0.4,0.9l-1.7,0.2v1.9c0,0,0.2,1.7,0,1.9
			c-0.2,0.2-0.8,0.6-0.8,0.6l-0.7,1.9l0.8,1.1l0.2,2.4L325.8,236.4z"/>
		<path class="st4" d="M325.8,236.4l2.1-1l0.9-0.9l0.7-0.9l0.9-0.4l0.4-0.8h0.6l0.4-4.2l0.3-1.3l1.3-0.4l0.6-1.2l1.5-1.2v-2.2v-6.4
			H333l-0.4,2.6l-1.3,0.3v1.8l-1.5,0.4l-1.4,1.1l0.1,1c0,0-0.7,1.7-0.6,2c0.1,0.2-0.4,0.9-0.4,0.9l-1.7,0.2v1.9c0,0,0.2,1.7,0,1.9
			c-0.2,0.2-0.8,0.6-0.8,0.6l-0.7,1.9l0.8,1.1l0.2,2.4L325.8,236.4z"/>
		<polyline class="st4" points="332.4,200.5 331.8,198.9 332.4,197.2 333.1,197.2 333.1,198.8 333.1,199.7 333.1,200.5 		"/>
		<polyline class="st4" points="332.4,200.5 331.8,198.9 332.4,197.2 333.1,197.2 333.1,198.8 333.1,199.7 333.1,200.5 		"/>
		<path class="st4" d="M428.3,256.6h1.5v1h1.6v-0.9l1.5-0.3v-1.5l2.5,0.7h4v-2l4-1.6l9-0.7l5.8,5l2.2,1.3l2.7,3.5l3.3,1.9l0.6,1.2
			h7.5l1.5-2.5h2.8v-1.3v-4.9l3-0.9v-1.5l3-0.9v-8.9l-1.2-2.1v-4h-2.2l-4.6-7.8l-3.7-2.7l-4.1-1.9l0.1-5h-1.6l-0.9-2.1l0-1.5
			l-2.7-0.9c0,0-1.2,4.1-1.2,4.6c0,0.4-0.9,1.8-0.9,1.8v2.8l-1.6-0.1l-3.6-3v-2.8l1.3-1.2v-1.3l-1.3-0.1l1.4,0.3l-0.8-0.9
			c0,0-2.1,0.6-4,0c-1.9-0.6-3.7,0-3.7,0l-3.4,4.1h-3.4l-0.9-1.2l-1.8,0.1l-2.4,3.1l-1.8,1.8l0.7,2.4l1.5,1l-0.9,1.5h-2.4
			c0,0-3.3,0.3-6.4,3.5c-1.5,2.2-1.3,5.6-1.3,5.6l-1.6,0.1v2.7l1.2,1.2c0,0,1,5,2.2,7.7l0.6,3.2l-0.1,1.4l-1,1L428.3,256.6z"/>
		<path class="st4" d="M428.3,256.6h1.5v1h1.6v-0.9l1.5-0.3v-1.5l2.5,0.7h4v-2l4-1.6l9-0.7l5.8,5l2.2,1.3l2.7,3.5l3.3,1.9l0.6,1.2
			h7.5l1.5-2.5h2.8v-1.3v-4.9l3-0.9v-1.5l3-0.9v-8.9l-1.2-2.1v-4h-2.2l-4.6-7.8l-3.7-2.7l-4.1-1.9l0.1-5h-1.6l-0.9-2.1l0-1.5
			l-2.7-0.9c0,0-1.2,4.1-1.2,4.6c0,0.4-0.9,1.8-0.9,1.8v2.8l-1.6-0.1l-3.6-3v-2.8l1.3-1.2v-1.3l-1.3-0.1l1.4,0.3l-0.8-0.9
			c0,0-2.1,0.6-4,0c-1.9-0.6-3.7,0-3.7,0l-3.4,4.1h-3.4l-0.9-1.2l-1.8,0.1l-2.4,3.1l-1.8,1.8l0.7,2.4l1.5,1l-0.9,1.5h-2.4
			c0,0-3.3,0.3-6.4,3.5c-1.5,2.2-1.3,5.6-1.3,5.6l-1.6,0.1v2.7l1.2,1.2c0,0,1,5,2.2,7.7l0.6,3.2l-0.1,1.4l-1,1L428.3,256.6z"/>
		<path class="st4" d="M470.6,272.2v-1.2l0.3-1h1.3l0.4,1.1l0.7,0.4l0.7,0.1c0,0-0.1,1.4,0,1.6c0.1,0.2,0,0.4,0,0.4l-1.1,0.3h-0.6
			l-0.4-0.6l-0.2-0.6c0,0,0.3-0.4-0.2-0.4C471.1,272.2,470.6,272.2,470.6,272.2"/>
		<path class="st4" d="M470.6,272.2v-1.2l0.3-1h1.3l0.4,1.1l0.7,0.4l0.7,0.1c0,0-0.1,1.4,0,1.6c0.1,0.2,0,0.4,0,0.4l-1.1,0.3h-0.6
			l-0.4-0.6l-0.2-0.6c0,0,0.3-0.4-0.2-0.4C471.1,272.2,470.6,272.2,470.6,272.2z"/>
		<path class="st4" d="M463.7,209.6c0,0,0-0.5-0.1-1.1c0-0.6,0-1.2,0.1-1.5c0.2-0.5,0-2.8,0-2.8l-0.8-1.1v-2.8
			c0-0.5-0.7-1.8,0.4-1.5c1.2,0.3,4.9,2.4,4.9,2.4v1.8h2.3l1.5,1.1v1.3v1c0,0-1.1,0.3-1,0.8c0.2,0.5,1,1.1,1.6,1.1
			c0.6,0-0.3-1.6,1.3,1.1c1.6,2.8,1.6,4.2,1.6,4.2h-1.3c0,0,0-0.3-0.5,0c-0.5,0.3-3.4-2.6-3.4-2.6s-1.7-1.1-1.3-1.6
			c0.4-0.5-2.8-1.1-2.8-1.1L463.7,209.6z"/>
		<path class="st4" d="M463.7,209.6c0,0,0-0.5-0.1-1.1c0-0.6,0-1.2,0.1-1.5c0.2-0.5,0-2.8,0-2.8l-0.8-1.1v-2.8
			c0-0.5-0.7-1.8,0.4-1.5c1.2,0.3,4.9,2.4,4.9,2.4v1.8h2.3l1.5,1.1v1.3v1c0,0-1.1,0.3-1,0.8c0.2,0.5,1,1.1,1.6,1.1
			c0.6,0-0.3-1.6,1.3,1.1c1.6,2.8,1.6,4.2,1.6,4.2h-1.3c0,0,0-0.3-0.5,0c-0.5,0.3-3.4-2.6-3.4-2.6s-1.7-1.1-1.3-1.6
			c0.4-0.5-2.8-1.1-2.8-1.1L463.7,209.6z"/>
		<path class="st4" d="M134,295.7c1.5,0,3.1-9.6,6.3-10c3.3-0.4,1.9-9.4,1.9-9.4l1.9-2.7h1v-1.9l-1.3-2.3l1.3-1.5l3.1-1l2.9-2.5
			l4-1.5v-5.2l4.8-1.7l3.4-3.8l2.9-2.5l1.7-10l6.7-5.6l5.4-1v-3.8l2.1-3.3v-3.1l3.8-1.1v-6.7l4.6-5.9c0,0,1.9-0.8,1.3-4.6
			c-0.6-3.8-3.6-1.7-5-1.7c-1.3,0-2.9-4.4-2.9-4.4l-6.7-1l-2.5-3.3c0,0-4.4,0-5.2,1.7c-0.8,1.7-1.9-1-1.9-1l0.6-7.1l-3.6-3.5
			l-5.6-1.7l-2.5-1l-1-3.8l-4.4-3.1h-8l-3.1-3.3h-3.8l-4.4,1.7l-0.8,1.9l-3.8,1.3h-4.4c0,0-1.3,1.9,1.1,2.3c2.5,0.4,2.9,2.9,2.9,4.2
			c0,1.3-0.2,5-0.2,5v4.8l-4.2,1.9v3.3l1.1,0.2l-1.1,2.1v4.4c0,0,1.5,0.6,2.1,0.6c0.6,0,1.5,4.2,1.5,4.2l4,9c0,0,2.9,2.1,4.4,7.7
			c1.5,5.6,0.6,21.3,0.6,21.3s-2.7,10.7-5.4,12.8c-0.9,1.5,0.6,10.5,0.6,10.5l1,0.4v2.7v1.9l-1.5,1l0.2,1.7l-0.2,3.6l-1.3,1.9
			c0,0,0.4,1.5,1,1.5c0.6,0,1.1,4,1.1,4l1.2,2.8C131.8,292.6,132.5,295.7,134,295.7"/>
		<path class="st4" d="M134,295.7c1.5,0,3.1-9.6,6.3-10c3.3-0.4,1.9-9.4,1.9-9.4l1.9-2.7h1v-1.9l-1.3-2.3l1.3-1.5l3.1-1l2.9-2.5
			l4-1.5v-5.2l4.8-1.7l3.4-3.8l2.9-2.5l1.7-10l6.7-5.6l5.4-1v-3.8l2.1-3.3v-3.1l3.8-1.1v-6.7l4.6-5.9c0,0,1.9-0.8,1.3-4.6
			c-0.6-3.8-3.6-1.7-5-1.7c-1.3,0-2.9-4.4-2.9-4.4l-6.7-1l-2.5-3.3c0,0-4.4,0-5.2,1.7c-0.8,1.7-1.9-1-1.9-1l0.6-7.1l-3.6-3.5
			l-5.6-1.7l-2.5-1l-1-3.8l-4.4-3.1h-8l-3.1-3.3h-3.8l-4.4,1.7l-0.8,1.9l-3.8,1.3h-4.4c0,0-1.3,1.9,1.1,2.3c2.5,0.4,2.9,2.9,2.9,4.2
			c0,1.3-0.2,5-0.2,5v4.8l-4.2,1.9v3.3l1.1,0.2l-1.1,2.1v4.4c0,0,1.5,0.6,2.1,0.6c0.6,0,1.5,4.2,1.5,4.2l4,9c0,0,2.9,2.1,4.4,7.7
			c1.5,5.6,0.6,21.3,0.6,21.3s-2.7,10.7-5.4,12.8c-0.9,1.5,0.6,10.5,0.6,10.5l1,0.4v2.7v1.9l-1.5,1l0.2,1.7l-0.2,3.6l-1.3,1.9
			c0,0,0.4,1.5,1,1.5c0.6,0,1.1,4,1.1,4l1.2,2.8C131.8,292.6,132.5,295.7,134,295.7z"/>
		<path class="st4" d="M137.9,299.3l4.8,0.2l0.1-1.3l1.3-0.4l-0.4-0.7h-1.3l0.1-1.2l-1.1-0.4v-1.1h-2.6h-2.2c0,0-0.2,3-0.2,3.1
			c0,0.1,1.1,1,1.3,1c0.2,0,0.2,1,0.2,1"/>
		<path class="st4" d="M137.9,299.3l4.8,0.2l0.1-1.3l1.3-0.4l-0.4-0.7h-1.3l0.1-1.2l-1.1-0.4v-1.1h-2.6h-2.2c0,0-0.2,3-0.2,3.1
			c0,0.1,1.1,1,1.3,1c0.2,0,0.2,1,0.2,1"/>
		<path class="st4" d="M84.6,151.3l-5.4-10.8c0,0-7.7-11.7-9.5-13.1c-1.8-1.4-3.6-16.3-2.3-20.3l1.4-4.1h-1.8h-4.5v-4.5l-3.2-1.8
			L57,91.2l-4.1-5l-2.3-4.5l-1.8,3.2v-5h-2.3h-2.7l-6.3-5h-7.2h-1.8h-2.7h-2.7L20,80.3l2.7,2v1.8H20l-1.1-2.4H18l-1.8,0.4v2.2
			L14,84.5L11.6,85v1.8l-1.6-2l2.7-2l1.6-2.9l-1.1-2.4h-1.8L10,75H8.3l-2.7-1.1v-2.7H4.3l1.1-1.8l3.1-1.6l1.3-1.1v-1.6H4.3l-1.8-2.9
			l-1.3-1.8h2h2.7h2h1.8l-0.7-1.1l-1.8-2L8.3,54l2-2.9l2.9-1.8h2l1.6-1.1H20l4,1.1l10.6,0.2l0.4,1.1h3.1v1.1h4.7l1.7,1.3l0.9,0.9
			l4.2-0.2l0.2,1.3h3.3l2.7-2l-0.3-0.7l1,0.1l0.3,1.4h2.4l0.1-0.9l2-0.5l0.1-1.9l2.6-0.1l1,1l1.5-0.1l1,1.1l4.9,0.3l0.4,1h2.9
			l0.1,1.5l2.9-0.6l0.7-3.1l2.6-0.2l0.4-1.5l-1-1.1l-3.3,0.4l-0.6-1.6l-1-1.1l-0.8-1v-1.2h-1.9l-0.6,0.6l0.2,2.2L72,47.7h-2.6
			l-2.2-1.2l-1.3-1l-0.6-1.2h1.5l1-2l0.5-1c0,0,2.9-1,3.1-1h4.9l1.5,0.9l0.6,0.5l-0.8,1.2c0,0,0,1,0.3,1h2.3l8.4,0.5l1.3,2.7
			l1.3-0.9v-1.5l1.9-0.3v-1.8l1.5,0.2l0.7,4.2l3.9,3.8v3.6l-0.8,1l-1,0.7l-0.7-0.5L95.3,55h-2.5h-2.9l-1.1,1.8l-0.4,0.5l-0.6,0.3
			c0,0-1.3,0.3-1.4,0c-0.1-0.3-1-0.9-1-0.9l-0.4-0.6l-0.5-0.3h-2.1l-0.7,0.6l-2.3,1.1c0,0-0.4,1.3,0.1,1.3H84c0,0,0.1-1.3,0.5-1.3
			c0.4,0,1.6,1.4,1.6,1.4l1.4,1.3l0.6,0.4l0.6-2l2-1c0,0,1.4-0.2,2.2-0.2H96c0,0-0.3-1,0-1c0.3,0,2.3,0.6,2.3,0.6s-0.3,0.1,0.1,1
			c0.4,0.9,2.1,1,2.1,1l0.4-1.2l3.3-0.4l1.1,0.1v-1l-1-0.2l-0.5-0.5c0,0,0.2-0.9,0.5-1c0.3-0.2,1.5-0.8,1.5-0.8s0.5,0.2,0.9,0.6
			c0.4,0.4,0.8,0.5,0.8,1v1.8l2.2-0.1l1-1l0.4-1.2l-1.5-1l-1.1-2.4V47l-0.4-3.5l2.3-1c0,0,3.4-0.9,3.7-0.9c0.3,0,1.3,1.3,1.3,1.3v1
			l-2.4,0.9l-1.7,0.9l-1,1.1l0.7,1.1l1.4,0.4v2l1.9,2.9l0.4,1.5l3.9,0.2l1.8,2.7l1.6-0.3c0,0,1,0.1,1-0.4c0-0.5-0.6-1.1,0-1.1
			c0.6,0,1.5-1.1,1.5-1.4c0-0.3-0.4-1.6-0.4-1.6l-1.3-0.2l-0.7-1.3l-1.5-0.5c0,0-0.6,0.5-0.9-0.7c-0.3-1.1-1.1-1.7-1.1-1.7
			s-0.1-1.2,0-1.5c0.1-0.3,0-2.3,0.3-2.7c0.3-0.4,0.8-1.4,0.8-1.4h1.6l0.2,1.7h1.6l-0.1,2.2c0,0,0,1.5,0.3,1.5
			c0.3,0,1.2-0.2,1.2-0.2l0.5-1.6v-1.9l1.8-0.7v-1l1,0.1l1,1.3h4.7c1.3,0,6.3,4.1,6.3,4.1l6.3,0.6l2,2.3l0.6,4.7l-2,1.1l0.1,1.3
			l4.6,1h1.3c0,0,0.4,1.7,0.9,1.7h2.9v2.5c0,0-1.5,0.8-1.8,0.9c-0.3,0.1-2.1,2.8-2.1,2.8s-0.1,1-1,0.4c-1-0.7-2.8-2.8-2.8-2.8
			l-0.7-0.8l-0.5,1.3c0,0-0.4,0.7,0.3,0.9c0.7,0.2,2.7,2.7,2.7,2.7l1.1,1.3l-1.8,1.6h-3.4l-0.7,2.9l-1.4-0.6l-0.7-1.7l-4.1-2.4
			l-0.4-1.9l-1.6-1.1l-4.2-0.3L133,66l0.5-1.1h0.7l0.1,0.6h2.3l1-2.4l0.4-2.5c0,0,0.5-1.6,0.6-2c0.1-0.4,0.8-1.5,0.8-1.5l-0.8-1.1
			l-2.7-1.6l-2.9-1.1l-3.6-1.7l-2.6,0.7l-0.9,1.6c0,0,0.4,1.7,1,1.7h2.7l0.5,0.9l-0.5,0.7l-0.8,0.5h-1.5l-1.3,3l-0.6,1.8l-2.8,1.3
			l-0.9,1.4c0,0,1.3,0.5,1.7,0.5c0.4,0,2.9,2.7,2.9,2.7l2.2,0.1l-1.3,1.4h-1.6l-4.6,0.4l-2-0.7l-0.1-0.9c0,0,0-1.3,0.1-1.8
			c0.1-0.5,0.1-1.2,0.1-1.2s-0.1-1.2-1-0.7c-0.9,0.6-1.8,0.7-1.8,0.7l0.5,2l-1.4,0.4h-1.7l-1,2.7l-3.6,1.6l-0.8,2.2l-0.5,1.3
			l-1.5,3.5l-1-0.4l0.2,1.4c0,0,1.4,0.3,1.8,0.3c0.4,0,1.7,1.4,1.7,1.4l1,2.5h1.7h3.7l2.3,2.4l1.5,3c0,0,2.9-0.7,3.2-0.7
			c0.4,0,2.4,1.5,2.4,1.5l0.8,5l2,1.1l1.6,0.3l0.2-5.6l2.5-2.1l1.3-3l-0.6-3.7l-2.2-0.5l-0.7-3.8l1.5,0.2l0.2-5.3l1.4-1l1.9-0.1V74
			h3c0.4,0,2.1-0.4,2.1-0.4s0.2,2.3,0.5,2.3c0.3,0,2.4-0.2,2.4-0.2l1,3.1v2.5l1.4,0.6l1.8-0.5l0.4-1c0,0,0.7-2,1-2
			c0.3,0,2.3-0.4,2.3-0.4l1.4,0.5l1.8,5.6l2.8,4.2c0,0,2.2,3.3,3.9,3.3c1.7,0,3.2,2.3,3.2,2.3l-1.6,3.1l-2.7,2.9l-3.7,0.2l-5.4,0.9
			l-1.6,1l-1.8,0.3l0.1,2.9l3-0.9c0,0-0.3-0.5,0.3-0.5c0.6,0,2.6-0.3,2.6-0.3s-0.2,1.7-0.2,2c0,0.3,0.6,1.8,0.6,1.8l3.2,0.1l-1,1.8
			h3.7l-2.5,2.5l-1.6,1.7H153l-2.7,0.1l-0.9-2l-1.1-2.1c0,0-1,0.7-0.7,1c0.4,0.4,0.4,3,0.4,3s-0.2,0.8,0.4,1
			c0.6,0.3,1.5,1.8,1.5,1.8l-0.8,0.7c0,0-0.4,0.2-0.8,0.2h-0.8l-1.3-0.2l-0.6-1.4l-1.7-1c0,0-1.1,0.9-1.1,1.1c0,0.3-0.6,2.2-0.6,2.2
			l-2.2,0.4l-1.7,0.9l-0.4,4.3l-3,2.5l0.8,4.9l-3.3,1.2l-1.3,4.2l-1.3,3v5l1,1.2l-0.3,3.4l-2,0.1c0,0-3.4-2.7-3.4-3.5
			c0-0.9-0.3-3.2-0.3-3.2l-0.9-1l-1.4-0.1l-4.8-1.6v2.1l-2.6,0.4l-6.4-1.3l-0.7-0.3l-0.9,2.2l-1.9,0.3l-1.5,5.1v2.6
			c0,1.1-0.2,4.9-0.2,4.9l0.4,1.8h0.9l0.5,2.2l1.3,1.4h1.5l0.5,1.1h1.5c0,0,1-0.1,1.2,0c0.3,0.1,2.2-0.8,2.2-1
			c0-0.3-0.1-1.8,0.2-2.2c0.3-0.4,1-0.6,1.2-1c0.3-0.5,2.5-1.4,2.8-1.7c0.3-0.3,2-1.5,2-1.5s0,1.4,0.2,2.2c0.2,0.8-0.1,7.6-0.1,7.6
			l0.7,0.8c0,0,1,0.1,1,1.1c0,1-1,8.9-1,8.9l1.5,2.2l-0.6,0.4h-2.1c0,0-1.5-1-1.8-1.1c-0.3-0.1-2.6-1.7-2.6-2.4v-2.8
			c0-0.4-0.6-1.9-0.6-1.9l-3.6-0.2c0,0-2.1-1-2.1-1.3c0-0.3-1.3-1.6-1.3-1.6l-2.4-1.6h-4.9h-3.1l-0.6-0.7c0,0,0.7-1.2,0.7-1.8
			c0-0.6-0.9-1.4-0.9-1.4l-2.9-2.5l-0.1-1.7l1-0.7c0,0-0.1-1-0.3-1.4c-0.2-0.4-3.2-6.7-3.2-6.7l-0.6-0.8l-2.6-2.7l-1.1-1
			c0,0-1-2-1-1.6v4c0,0,0.3,1.6,0.5,1.9c0.2,0.3,0.2,2.2,0.2,2.2v1v0.5l-0.2,0.9h-1L84.6,151.3z"/>
		<path class="st4" d="M84.6,151.3l-5.4-10.8c0,0-7.7-11.7-9.5-13.1c-1.8-1.4-3.6-16.3-2.3-20.3l1.4-4.1h-1.8h-4.5v-4.5l-3.2-1.8
			L57,91.2l-4.1-5l-2.3-4.5l-1.8,3.2v-5h-2.3h-2.7l-6.3-5h-7.2h-1.8h-2.7h-2.7L20,80.3l2.7,2v1.8H20l-1.1-2.4H18l-1.8,0.4v2.2
			L14,84.5L11.6,85v1.8l-1.6-2l2.7-2l1.6-2.9l-1.1-2.4h-1.8L10,75H8.3l-2.7-1.1v-2.7H4.3l1.1-1.8l3.1-1.6l1.3-1.1v-1.6H4.3l-1.8-2.9
			l-1.3-1.8h2h2.7h2h1.8l-0.7-1.1l-1.8-2L8.3,54l2-2.9l2.9-1.8h2l1.6-1.1H20l4,1.1l10.6,0.2l0.4,1.1h3.1v1.1h4.7l1.7,1.3l0.9,0.9
			l4.2-0.2l0.2,1.3h3.3l2.7-2l-0.3-0.7l1,0.1l0.3,1.4h2.4l0.1-0.9l2-0.5l0.1-1.9l2.6-0.1l1,1l1.5-0.1l1,1.1l4.9,0.3l0.4,1h2.9
			l0.1,1.5l2.9-0.6l0.7-3.1l2.6-0.2l0.4-1.5l-1-1.1l-3.3,0.4l-0.6-1.6l-1-1.1l-0.8-1v-1.2h-1.9l-0.6,0.6l0.2,2.2L72,47.7h-2.6
			l-2.2-1.2l-1.3-1l-0.6-1.2h1.5l1-2l0.5-1c0,0,2.9-1,3.1-1h4.9l1.5,0.9l0.6,0.5l-0.8,1.2c0,0,0,1,0.3,1h2.3l8.4,0.5l1.3,2.7
			l1.3-0.9v-1.5l1.9-0.3v-1.8l1.5,0.2l0.7,4.2l3.9,3.8v3.6l-0.8,1l-1,0.7l-0.7-0.5L95.3,55h-2.5h-2.9l-1.1,1.8l-0.4,0.5l-0.6,0.3
			c0,0-1.3,0.3-1.4,0c-0.1-0.3-1-0.9-1-0.9l-0.4-0.6l-0.5-0.3h-2.1l-0.7,0.6l-2.3,1.1c0,0-0.4,1.3,0.1,1.3H84c0,0,0.1-1.3,0.5-1.3
			c0.4,0,1.6,1.4,1.6,1.4l1.4,1.3l0.6,0.4l0.6-2l2-1c0,0,1.4-0.2,2.2-0.2H96c0,0-0.3-1,0-1c0.3,0,2.3,0.6,2.3,0.6s-0.3,0.1,0.1,1
			c0.4,0.9,2.1,1,2.1,1l0.4-1.2l3.3-0.4l1.1,0.1v-1l-1-0.2l-0.5-0.5c0,0,0.2-0.9,0.5-1c0.3-0.2,1.5-0.8,1.5-0.8s0.5,0.2,0.9,0.6
			c0.4,0.4,0.8,0.5,0.8,1v1.8l2.2-0.1l1-1l0.4-1.2l-1.5-1l-1.1-2.4V47l-0.4-3.5l2.3-1c0,0,3.4-0.9,3.7-0.9c0.3,0,1.3,1.3,1.3,1.3v1
			l-2.4,0.9l-1.7,0.9l-1,1.1l0.7,1.1l1.4,0.4v2l1.9,2.9l0.4,1.5l3.9,0.2l1.8,2.7l1.6-0.3c0,0,1,0.1,1-0.4c0-0.5-0.6-1.1,0-1.1
			c0.6,0,1.5-1.1,1.5-1.4c0-0.3-0.4-1.6-0.4-1.6l-1.3-0.2l-0.7-1.3l-1.5-0.5c0,0-0.6,0.5-0.9-0.7c-0.3-1.1-1.1-1.7-1.1-1.7
			s-0.1-1.2,0-1.5c0.1-0.3,0-2.3,0.3-2.7c0.3-0.4,0.8-1.4,0.8-1.4h1.6l0.2,1.7h1.6l-0.1,2.2c0,0,0,1.5,0.3,1.5
			c0.3,0,1.2-0.2,1.2-0.2l0.5-1.6v-1.9l1.8-0.7v-1l1,0.1l1,1.3h4.7c1.3,0,6.3,4.1,6.3,4.1l6.3,0.6l2,2.3l0.6,4.7l-2,1.1l0.1,1.3
			l4.6,1h1.3c0,0,0.4,1.7,0.9,1.7h2.9v2.5c0,0-1.5,0.8-1.8,0.9c-0.3,0.1-2.1,2.8-2.1,2.8s-0.1,1-1,0.4c-1-0.7-2.8-2.8-2.8-2.8
			l-0.7-0.8l-0.5,1.3c0,0-0.4,0.7,0.3,0.9c0.7,0.2,2.7,2.7,2.7,2.7l1.1,1.3l-1.8,1.6h-3.4l-0.7,2.9l-1.4-0.6l-0.7-1.7l-4.1-2.4
			l-0.4-1.9l-1.6-1.1l-4.2-0.3L133,66l0.5-1.1h0.7l0.1,0.6h2.3l1-2.4l0.4-2.5c0,0,0.5-1.6,0.6-2c0.1-0.4,0.8-1.5,0.8-1.5l-0.8-1.1
			l-2.7-1.6l-2.9-1.1l-3.6-1.7l-2.6,0.7l-0.9,1.6c0,0,0.4,1.7,1,1.7h2.7l0.5,0.9l-0.5,0.7l-0.8,0.5h-1.5l-1.3,3l-0.6,1.8l-2.8,1.3
			l-0.9,1.4c0,0,1.3,0.5,1.7,0.5c0.4,0,2.9,2.7,2.9,2.7l2.2,0.1l-1.3,1.4h-1.6l-4.6,0.4l-2-0.7l-0.1-0.9c0,0,0-1.3,0.1-1.8
			c0.1-0.5,0.1-1.2,0.1-1.2s-0.1-1.2-1-0.7c-0.9,0.6-1.8,0.7-1.8,0.7l0.5,2l-1.4,0.4h-1.7l-1,2.7l-3.6,1.6l-0.8,2.2l-0.5,1.3
			l-1.5,3.5l-1-0.4l0.2,1.4c0,0,1.4,0.3,1.8,0.3c0.4,0,1.7,1.4,1.7,1.4l1,2.5h1.7h3.7l2.3,2.4l1.5,3c0,0,2.9-0.7,3.2-0.7
			c0.4,0,2.4,1.5,2.4,1.5l0.8,5l2,1.1l1.6,0.3l0.2-5.6l2.5-2.1l1.3-3l-0.6-3.7l-2.2-0.5l-0.7-3.8l1.5,0.2l0.2-5.3l1.4-1l1.9-0.1V74
			h3c0.4,0,2.1-0.4,2.1-0.4s0.2,2.3,0.5,2.3c0.3,0,2.4-0.2,2.4-0.2l1,3.1v2.5l1.4,0.6l1.8-0.5l0.4-1c0,0,0.7-2,1-2
			c0.3,0,2.3-0.4,2.3-0.4l1.4,0.5l1.8,5.6l2.8,4.2c0,0,2.2,3.3,3.9,3.3c1.7,0,3.2,2.3,3.2,2.3l-1.6,3.1l-2.7,2.9l-3.7,0.2l-5.4,0.9
			l-1.6,1l-1.8,0.3l0.1,2.9l3-0.9c0,0-0.3-0.5,0.3-0.5c0.6,0,2.6-0.3,2.6-0.3s-0.2,1.7-0.2,2c0,0.3,0.6,1.8,0.6,1.8l3.2,0.1l-1,1.8
			h3.7l-2.5,2.5l-1.6,1.7H153l-2.7,0.1l-0.9-2l-1.1-2.1c0,0-1,0.7-0.7,1c0.4,0.4,0.4,3,0.4,3s-0.2,0.8,0.4,1
			c0.6,0.3,1.5,1.8,1.5,1.8l-0.8,0.7c0,0-0.4,0.2-0.8,0.2h-0.8l-1.3-0.2l-0.6-1.4l-1.7-1c0,0-1.1,0.9-1.1,1.1c0,0.3-0.6,2.2-0.6,2.2
			l-2.2,0.4l-1.7,0.9l-0.4,4.3l-3,2.5l0.8,4.9l-3.3,1.2l-1.3,4.2l-1.3,3v5l1,1.2l-0.3,3.4l-2,0.1c0,0-3.4-2.7-3.4-3.5
			c0-0.9-0.3-3.2-0.3-3.2l-0.9-1l-1.4-0.1l-4.8-1.6v2.1l-2.6,0.4l-6.4-1.3l-0.7-0.3l-0.9,2.2l-1.9,0.3l-1.5,5.1v2.6
			c0,1.1-0.2,4.9-0.2,4.9l0.4,1.8h0.9l0.5,2.2l1.3,1.4h1.5l0.5,1.1h1.5c0,0,1-0.1,1.2,0c0.3,0.1,2.2-0.8,2.2-1
			c0-0.3-0.1-1.8,0.2-2.2c0.3-0.4,1-0.6,1.2-1c0.3-0.5,2.5-1.4,2.8-1.7c0.3-0.3,2-1.5,2-1.5s0,1.4,0.2,2.2c0.2,0.8-0.1,7.6-0.1,7.6
			l0.7,0.8c0,0,1,0.1,1,1.1c0,1-1,8.9-1,8.9l1.5,2.2l-0.6,0.4h-2.1c0,0-1.5-1-1.8-1.1c-0.3-0.1-2.6-1.7-2.6-2.4v-2.8
			c0-0.4-0.6-1.9-0.6-1.9l-3.6-0.2c0,0-2.1-1-2.1-1.3c0-0.3-1.3-1.6-1.3-1.6l-2.4-1.6h-4.9h-3.1l-0.6-0.7c0,0,0.7-1.2,0.7-1.8
			c0-0.6-0.9-1.4-0.9-1.4l-2.9-2.5l-0.1-1.7l1-0.7c0,0-0.1-1-0.3-1.4c-0.2-0.4-3.2-6.7-3.2-6.7l-0.6-0.8l-2.6-2.7l-1.1-1
			c0,0-1-2-1-1.6v4c0,0,0.3,1.6,0.5,1.9c0.2,0.3,0.2,2.2,0.2,2.2v1v0.5l-0.2,0.9h-1L84.6,151.3z"/>
		<path class="st4" d="M133.6,159.1h0.4h2.2c0,0,0.3-1,0-1.5c-0.3-0.5-1.2-1-1.2-1h-1.3c0,0-0.7-1-0.9-1.3c-0.2-0.3-1.4-1.3-1.4-1.6
			c0-0.3,0.7-0.6,0-0.9c-0.7-0.3-2-0.5-2-0.5s-1.3-0.9-1.3,0v2c0,0.3,3.4,1.2,3.4,1.2s0.6,2.3,0.7,2.3
			C132.3,157.8,133.6,159.1,133.6,159.1"/>
		<path class="st4" d="M133.6,159.1h0.4h2.2c0,0,0.3-1,0-1.5c-0.3-0.5-1.2-1-1.2-1h-1.3c0,0-0.7-1-0.9-1.3c-0.2-0.3-1.4-1.3-1.4-1.6
			c0-0.3,0.7-0.6,0-0.9c-0.7-0.3-2-0.5-2-0.5s-1.3-0.9-1.3,0v2c0,0.3,3.4,1.2,3.4,1.2s0.6,2.3,0.7,2.3
			C132.3,157.8,133.6,159.1,133.6,159.1z"/>
		<path class="st4" d="M140.3,163.8v-1.1h-1.6l0.8-1.2c0,0,2-0.6,2-1v-1.3h1.7v0.9l2,0.2l0.6,1.9l-0.7,0.6l-1.1,0.8
			c0,0-0.8,0.7-1.2,0.4C142.2,163.5,140.3,163.8,140.3,163.8"/>
		<path class="st4" d="M140.3,163.8v-1.1h-1.6l0.8-1.2c0,0,2-0.6,2-1v-1.3h1.7v0.9l2,0.2l0.6,1.9l-0.7,0.6l-1.1,0.8
			c0,0-0.8,0.7-1.2,0.4C142.2,163.5,140.3,163.8,140.3,163.8z"/>
		<path class="st4" d="M73.9,36.1l1.2-1.7h1.3v0.9l0.5,1.6c0,0,1.3,2.8,1.6,2.3c0.3-0.5,2-0.6,2-0.6l1.6-0.5l0.9,1.2
			c0,0-1.2,1.9,0,2c1.2,0.1,2.9-0.2,3.5,0c0.6,0.2,0.7-0.1,0.7-0.4c0-0.3,0.5-0.8,1.3-0.8s3.6-0.7,3.6-0.7l-0.4-1.4L90.7,36
			c0,0,0.2-1.5-0.1-1.6c-0.3-0.1-1.5,0-1.5,0s-1.4,1-1.4,1.3c0,0.3-0.8,2.6-0.8,2.6l-1.8-0.5l-0.2-1.5l-2.1-0.1l-0.1,0.8L79,35.5
			l-0.7-1.9v-2.3h-4.8v1.8L71.8,34h-1.7c0,0-0.2,2,0,2.2c0.2,0.2,0.4-0.3,1.1,0C71.9,36.6,73.9,36.1,73.9,36.1"/>
		<path class="st4" d="M73.9,36.1l1.2-1.7h1.3v0.9l0.5,1.6c0,0,1.3,2.8,1.6,2.3c0.3-0.5,2-0.6,2-0.6l1.6-0.5l0.9,1.2
			c0,0-1.2,1.9,0,2c1.2,0.1,2.9-0.2,3.5,0c0.6,0.2,0.7-0.1,0.7-0.4c0-0.3,0.5-0.8,1.3-0.8s3.6-0.7,3.6-0.7l-0.4-1.4L90.7,36
			c0,0,0.2-1.5-0.1-1.6c-0.3-0.1-1.5,0-1.5,0s-1.4,1-1.4,1.3c0,0.3-0.8,2.6-0.8,2.6l-1.8-0.5l-0.2-1.5l-2.1-0.1l-0.1,0.8L79,35.5
			l-0.7-1.9v-2.3h-4.8v1.8L71.8,34h-1.7c0,0-0.2,2,0,2.2c0.2,0.2,0.4-0.3,1.1,0C71.9,36.6,73.9,36.1,73.9,36.1z"/>
		<path class="st4" d="M86.4,31.3h0.8l1.1-0.4v-1.3h-2.6v1.7c0,0-0.9,1,0,1h0.9L86.4,31.3z"/>
		<path class="st4" d="M86.4,31.3h0.8l1.1-0.4v-1.3h-2.6v1.7c0,0-0.9,1,0,1h0.9L86.4,31.3z"/>
		<path class="st4" d="M95.3,25.8v2.9l0.7,0.9c0,0,1.3-0.1,1.9,0c0.6,0.1,0.6,0.3,1.2,0.9l0.6,0.6c0,0,0.7-0.8,1.3,0.2
			c0.6,1-0.1,1.1,0.6,1c0.7-0.1,0.8-0.6,0.8-1.4v-2.6c0,0,0.9-0.7,0-0.9c-0.9-0.2-3.9-0.2-3.9-0.2L96.6,27v-1.2H95.3z"/>
		<path class="st4" d="M95.3,25.8v2.9l0.7,0.9c0,0,1.3-0.1,1.9,0c0.6,0.1,0.6,0.3,1.2,0.9l0.6,0.6c0,0,0.7-0.8,1.3,0.2
			c0.6,1-0.1,1.1,0.6,1c0.7-0.1,0.8-0.6,0.8-1.4v-2.6c0,0,0.9-0.7,0-0.9c-0.9-0.2-3.9-0.2-3.9-0.2L96.6,27v-1.2H95.3z"/>
		<path class="st4" d="M103,39.6v-1.2h-1.1c0,0-1.4-0.2-1.4-0.6v-1.6c0,0,0.3-0.6,1.3-0.6h2.2v1.4h1.1c0,0-0.2,0.5,0,1.5l0.2,1
			l-1.4,0.4L103,39.6z"/>
		<path class="st4" d="M103,39.6v-1.2h-1.1c0,0-1.4-0.2-1.4-0.6v-1.6c0,0,0.3-0.6,1.3-0.6h2.2v1.4h1.1c0,0-0.2,0.5,0,1.5l0.2,1
			l-1.4,0.4L103,39.6z"/>
		<path class="st4" d="M102.8,46.7v0.8l0.2,1.7h2.3c0.5,0,0.8-1.7,0.8-1.7s-0.2-0.8,0.5-0.8c0.7,0,2,1,1.2,0c-0.8-1-1.8-1.5-1.8-1.5
			h-1.4l-0.2-1.3l-1.3-1.1h-1l-0.6,1.3l-0.4,0.4c0,0-1.8-1-1.8,0.1c0.1,1.1,1.3,1.4,1.3,1.4h1.9L102.8,46.7z"/>
		<path class="st4" d="M102.8,46.7v0.8l0.2,1.7h2.3c0.5,0,0.8-1.7,0.8-1.7s-0.2-0.8,0.5-0.8c0.7,0,2,1,1.2,0c-0.8-1-1.8-1.5-1.8-1.5
			h-1.4l-0.2-1.3l-1.3-1.1h-1l-0.6,1.3l-0.4,0.4c0,0-1.8-1-1.8,0.1c0.1,1.1,1.3,1.4,1.3,1.4h1.9L102.8,46.7z"/>
		<path class="st4" d="M108.8,36.8l1.3-0.5v-1.1v-2h-1.3c0,0-0.8,0.3-0.8,0.7c0.1,0.4-0.6,1.7,0,1.8
			C108.6,35.7,108.8,36.8,108.8,36.8"/>
		<path class="st4" d="M108.8,36.8l1.3-0.5v-1.1v-2h-1.3c0,0-0.8,0.3-0.8,0.7c0.1,0.4-0.6,1.7,0,1.8
			C108.6,35.7,108.8,36.8,108.8,36.8z"/>
		<path class="st4" d="M114.2,41.1v-2.3c0,0-1.7-1.3-1.8-1.6c-0.1-0.3-0.2-0.8,0-1.5c0.2-0.7,0.9-1.4,0.9-1.4v1.4h2.2v1.1
			c0,0,0.5,1,1.2,0.9s1.8-0.9,1.8-0.9l0.8,1.5V39c0,0,2.8,0.3,3.3,0.3h3.3h4.5l1.9,0.7l-1,1.1h-6h-4.5h-4.3H114.2z"/>
		<path class="st4" d="M114.2,41.1v-2.3c0,0-1.7-1.3-1.8-1.6c-0.1-0.3-0.2-0.8,0-1.5c0.2-0.7,0.9-1.4,0.9-1.4v1.4h2.2v1.1
			c0,0,0.5,1,1.2,0.9s1.8-0.9,1.8-0.9l0.8,1.5V39c0,0,2.8,0.3,3.3,0.3h3.3h4.5l1.9,0.7l-1,1.1h-6h-4.5h-4.3H114.2z"/>
		<path class="st4" d="M118.8,34.9c0,0,0.8-1.6,1-1.8c0.2-0.2,1.7-0.3,2.1-0.7c0.3-0.4,1.4-0.7,1.5-1.4c0.1-0.7,0-1.4,0-1.4
			s-2-0.7-2.3-0.5c-0.3,0.2-1.4,0.2-1.7,0.5c-0.3,0.3-1.3,0.6-1.3,0.6l-0.8-1.1c0,0-1.2-0.5-1.3,0c-0.1,0.5-1.3,1.9-1.3,1.9
			l-1.2-1.4l-2.1-1.3v-1.7l-1.6-0.7l-1.6-0.5l0.5-1.7l1.2-1.5c0,0,0.9-1.4,1.1-1.7c0.2-0.3,0-0.8,0.7-0.7c0.7,0.1,2.9,0.8,2.9,0.8
			l-0.1,1.9h3.2l-1.8-2.8h2.2h3.5l0.2-0.8h2.8v-1.8h7.5l1.7-1.8h7.7c0,0,3.6,0.3,4.3,0c0.7-0.3,4.5,0.3,4.9,0
			c0.4-0.3,3.8-0.1,3.8-0.1s1.4,0.3,1.5,0.6c0.1,0.3,0,1.5,0,1.5l1.4,1.2c0,0-0.1,1.1-0.7,1.1c-0.6,0-2,0.3-2,0.3l-2.7,1.8l-2.8,1.8
			l-0.7-0.3l-2.3,0.1l-0.1,1.7h-1.6l-0.3,0.9h-4.5h-1.9l0.1,5.2h-5.9l-1,3.2c0,0,0.2,3,0.6,3c0.4,0-5.4-0.4-5.4-0.4s-4.8,0-5.1,0
			c-0.3,0-2.5,0.7-2.3,0C118.8,36.1,118.8,34.9,118.8,34.9"/>
		<path class="st4" d="M118.8,34.9c0,0,0.8-1.6,1-1.8c0.2-0.2,1.7-0.3,2.1-0.7c0.3-0.4,1.4-0.7,1.5-1.4c0.1-0.7,0-1.4,0-1.4
			s-2-0.7-2.3-0.5c-0.3,0.2-1.4,0.2-1.7,0.5c-0.3,0.3-1.3,0.6-1.3,0.6l-0.8-1.1c0,0-1.2-0.5-1.3,0c-0.1,0.5-1.3,1.9-1.3,1.9
			l-1.2-1.4l-2.1-1.3v-1.7l-1.6-0.7l-1.6-0.5l0.5-1.7l1.2-1.5c0,0,0.9-1.4,1.1-1.7c0.2-0.3,0-0.8,0.7-0.7c0.7,0.1,2.9,0.8,2.9,0.8
			l-0.1,1.9h3.2l-1.8-2.8h2.2h3.5l0.2-0.8h2.8v-1.8h7.5l1.7-1.8h7.7c0,0,3.6,0.3,4.3,0c0.7-0.3,4.5,0.3,4.9,0
			c0.4-0.3,3.8-0.1,3.8-0.1s1.4,0.3,1.5,0.6c0.1,0.3,0,1.5,0,1.5l1.4,1.2c0,0-0.1,1.1-0.7,1.1c-0.6,0-2,0.3-2,0.3l-2.7,1.8l-2.8,1.8
			l-0.7-0.3l-2.3,0.1l-0.1,1.7h-1.6l-0.3,0.9h-4.5h-1.9l0.1,5.2h-5.9l-1,3.2c0,0,0.2,3,0.6,3c0.4,0-5.4-0.4-5.4-0.4s-4.8,0-5.1,0
			c-0.3,0-2.5,0.7-2.3,0C118.8,36.1,118.8,34.9,118.8,34.9z"/>
		<path class="st4" d="M168.5,24l0.8-0.6l1.3-0.8c0,0-2.9-2.3-3.6-2.4c-0.6-0.2-1.9-0.3-3.1-0.3c-1.2,0,1.7-1.5,1.7-1.5v-1l2.8,1.1
			h4.5l1.6-2.4l0.6-1c0,0-0.6-1.6-1.6-1.6c-1,0-2.4-0.3-3.6-0.3c-1.1,0,1.8-1.3,1.8-1.3l2.9-0.3h1.3l3.7,0.3l0.8-0.6l1.3-2.8
			l6.2-0.3l3.2,1.1l0.8,1.5h2.9c0,0,0.2-0.6,0.2-1.5c0-0.8,2.3-0.5,2.3-0.5l3.2,0.3l1-2.1h5.7h8.4l3.7,0.6l1.1-2.8h1.8l1.5,2.4
			l1-2.4h6.8l3.1,1l0.8,1.3c0,0-1.5,3.9-1.5,4.4c0,0.5,3.1-0.3,3.1-0.3s3.4-1.8,3.9-2.3c0.5-0.5,4.7-1,4.7-1h5c0,0,0,2.8-1.1,3.4
			c-1.1,0.6-3.2,1.3-3.7,1.6c-0.5,0.3-3.4,2.1-3.4,2.1l-3.7,2.3v3.6h1.9v1.8l-1.3,1.5l1.3,1.3v1.8v3.6l-1.3,1.9c0,0-1.5,1.1-2.3,0.6
			c-0.8-0.5,0,0,0-0.5c0-0.5-3.2-0.6-3.7-0.6c-0.5,0-0.5,0.6-0.8,1.5c-0.3,0.8-0.2,1.9-0.2,1.9s2.1,2.3,2.6,2.4c0.5,0.2,1,1.5,1,1.5
			l-1.6,0.2l-2.3-0.3l-1.1,2.8l3.4,0.6v2.1c0,0-2.3,2.1-3.9,2.1c-1.6,0-3.7,0.2-3.7,0.2s-2.3,1.5-3.4,1.5c-1.1,0-2.8,1.3-2.8,1.3
			s-1.1,2.1-2.4,2.1c-1.3,0-6.8,1.1-6.8,1.1l-0.8,3.2l-1.6,3.2l-1.9,1.5l-2.1,4.4l-0.6,1h-2.8v-1.3l-3.2-0.8l-2.3-2.6v-5.3h-1.9
			l-0.6-0.8l0.6-2.8l-0.6-2.3h-1.8l0.3-1.8l2.1-2.6V45h-1.8l-1.3-2.9h1.3v-3.6l-10-12.4h-12.2l-0.3-0.7l-1.6-0.8L168.5,24z"/>
		<path class="st4" d="M168.5,24l0.8-0.6l1.3-0.8c0,0-2.9-2.3-3.6-2.4c-0.6-0.2-1.9-0.3-3.1-0.3c-1.2,0,1.7-1.5,1.7-1.5v-1l2.8,1.1
			h4.5l1.6-2.4l0.6-1c0,0-0.6-1.6-1.6-1.6c-1,0-2.4-0.3-3.6-0.3c-1.1,0,1.8-1.3,1.8-1.3l2.9-0.3h1.3l3.7,0.3l0.8-0.6l1.3-2.8
			l6.2-0.3l3.2,1.1l0.8,1.5h2.9c0,0,0.2-0.6,0.2-1.5c0-0.8,2.3-0.5,2.3-0.5l3.2,0.3l1-2.1h5.7h8.4l3.7,0.6l1.1-2.8h1.8l1.5,2.4
			l1-2.4h6.8l3.1,1l0.8,1.3c0,0-1.5,3.9-1.5,4.4c0,0.5,3.1-0.3,3.1-0.3s3.4-1.8,3.9-2.3c0.5-0.5,4.7-1,4.7-1h5c0,0,0,2.8-1.1,3.4
			c-1.1,0.6-3.2,1.3-3.7,1.6c-0.5,0.3-3.4,2.1-3.4,2.1l-3.7,2.3v3.6h1.9v1.8l-1.3,1.5l1.3,1.3v1.8v3.6l-1.3,1.9c0,0-1.5,1.1-2.3,0.6
			c-0.8-0.5,0,0,0-0.5c0-0.5-3.2-0.6-3.7-0.6c-0.5,0-0.5,0.6-0.8,1.5c-0.3,0.8-0.2,1.9-0.2,1.9s2.1,2.3,2.6,2.4c0.5,0.2,1,1.5,1,1.5
			l-1.6,0.2l-2.3-0.3l-1.1,2.8l3.4,0.6v2.1c0,0-2.3,2.1-3.9,2.1c-1.6,0-3.7,0.2-3.7,0.2s-2.3,1.5-3.4,1.5c-1.1,0-2.8,1.3-2.8,1.3
			s-1.1,2.1-2.4,2.1c-1.3,0-6.8,1.1-6.8,1.1l-0.8,3.2l-1.6,3.2l-1.9,1.5l-2.1,4.4l-0.6,1h-2.8v-1.3l-3.2-0.8l-2.3-2.6v-5.3h-1.9
			l-0.6-0.8l0.6-2.8l-0.6-2.3h-1.8l0.3-1.8l2.1-2.6V45h-1.8l-1.3-2.9h1.3v-3.6l-10-12.4h-12.2l-0.3-0.7l-1.6-0.8L168.5,24z"/>
		<path class="st4" d="M233.3,65.5c0,0-1.1-1.5-1.3-1.8c-0.2-0.3-1.5-0.9-1.7-1.4c-0.2-0.4-0.9-1.5-0.6-1.9c0.3-0.4,0.8-1.5,1.3-1.5
			c0.5-0.1,1,0,1,0s0.1,1.3,0.3,1.3h2.1c0.4,0,0.8-1.3,0.8-1.3h3.7c0,0,2.9,0.3,3.2,0c0.3-0.3,1.4,0.4,1.6,0.4
			c0.3,0,0.1,0.8,0.6,0.8c0.5,0,0.9,0.5,0.9,0.5l-2.1,1.2v1.9c0,0,0.3,0.9,0,0.9c-0.3,0-2.6-0.6-2.9-0.6c-0.3,0-2.8-0.1-2.8-0.1
			s-0.2-0.1,0,0.3c0.2,0.4,0,0.8,0,0.8l-2.2,0.2L233.3,65.5z"/>
		<path class="st4" d="M233.3,65.5c0,0-1.1-1.5-1.3-1.8c-0.2-0.3-1.5-0.9-1.7-1.4c-0.2-0.4-0.9-1.5-0.6-1.9c0.3-0.4,0.8-1.5,1.3-1.5
			c0.5-0.1,1,0,1,0s0.1,1.3,0.3,1.3h2.1c0.4,0,0.8-1.3,0.8-1.3h3.7c0,0,2.9,0.3,3.2,0c0.3-0.3,1.4,0.4,1.6,0.4
			c0.3,0,0.1,0.8,0.6,0.8c0.5,0,0.9,0.5,0.9,0.5l-2.1,1.2v1.9c0,0,0.3,0.9,0,0.9c-0.3,0-2.6-0.6-2.9-0.6c-0.3,0-2.8-0.1-2.8-0.1
			s-0.2-0.1,0,0.3c0.2,0.4,0,0.8,0,0.8l-2.2,0.2L233.3,65.5z"/>
		<path class="st4" d="M281.3,23.2l7.7,0.5l1.8-0.5l0.3,1.2l1.1,0.9v0.9l-0.8,1l-0.3,1.1l0.2,0.9l-1.4,0.8l0.2,1l0.1,0.7h-1.4h-1.6
			c0,0,0.4-0.3,0-0.9c-0.4-0.7-1.4-1.4-1.4-1.4v-2h-2.9l-1-1.5c0,0-1.5-0.4-1.5-0.8C280.3,24.8,281.3,23.2,281.3,23.2"/>
		<path class="st4" d="M281.3,23.2l7.7,0.5l1.8-0.5l0.3,1.2l1.1,0.9v0.9l-0.8,1l-0.3,1.1l0.2,0.9l-1.4,0.8l0.2,1l0.1,0.7h-1.4h-1.6
			c0,0,0.4-0.3,0-0.9c-0.4-0.7-1.4-1.4-1.4-1.4v-2h-2.9l-1-1.5c0,0-1.5-0.4-1.5-0.8C280.3,24.8,281.3,23.2,281.3,23.2z"/>
		<path class="st4" d="M293.1,23.2v-1.8h3.4c0.7,0,2.7,0.3,2.7,0.9c0.1,0.6,0,1.5-0.6,1.5c-0.6,0-3.1,0.1-3.4,0
			C294.9,23.7,293.1,23.2,293.1,23.2"/>
		<path class="st4" d="M293.1,23.2v-1.8h3.4c0.7,0,2.7,0.3,2.7,0.9c0.1,0.6,0,1.5-0.6,1.5c-0.6,0-3.1,0.1-3.4,0
			C294.9,23.7,293.1,23.2,293.1,23.2z"/>
		<polygon class="st4" points="296.2,28.3 297.7,28.3 297.7,29.4 295.7,28.9 		"/>
		<polygon class="st4" points="296.2,28.3 297.7,28.3 297.7,29.4 295.7,28.9 		"/>
		<path class="st4" d="M252.2,93.7l-3-0.7l-0.7-0.8v-2.9l2.1-1.5l1.2-2.7l0.3-1.5c0,0,1.3,0.5,1.3,1c0,0.5,1.3,0.1,1.3,0.1l0.4-4.1
			c0,0-0.5-2.6,0-2.6c0.5,0,1.3,0,1.4,0.4c0.1,0.4,0.5,3.5,1,3.8c0.5,0.3,0.9,0.9,1.4,1.7c0.4,0.9,2.9,4.5,2.9,4.5h1.5l0.9,4v2.7
			h-1.5c0,0-3.6,0.6-3.9,0.6h-3.2c0,0-1.9-1.6-1.8-1.9c0.1-0.3,1.5-1.8,1.5-1.8l1.1-2.3v-2.9h-2.6v1.5v2.1c0,0.3-0.5,2.3-0.9,2.5
			C252.6,93.2,252.2,93.7,252.2,93.7"/>
		<path class="st4" d="M252.2,93.7l-3-0.7l-0.7-0.8v-2.9l2.1-1.5l1.2-2.7l0.3-1.5c0,0,1.3,0.5,1.3,1c0,0.5,1.3,0.1,1.3,0.1l0.4-4.1
			c0,0-0.5-2.6,0-2.6c0.5,0,1.3,0,1.4,0.4c0.1,0.4,0.5,3.5,1,3.8c0.5,0.3,0.9,0.9,1.4,1.7c0.4,0.9,2.9,4.5,2.9,4.5h1.5l0.9,4v2.7
			h-1.5c0,0-3.6,0.6-3.9,0.6h-3.2c0,0-1.9-1.6-1.8-1.9c0.1-0.3,1.5-1.8,1.5-1.8l1.1-2.3v-2.9h-2.6v1.5v2.1c0,0.3-0.5,2.3-0.9,2.5
			C252.6,93.2,252.2,93.7,252.2,93.7z"/>
		<path class="st4" d="M343.8,47.3l0.7-3.5l-0.7-1.7l3.9-1.3l2.8-1.9l1.1-1.9l1.1-2.3h-2.3c0,0-2.8-0.5-2.8,0v1.7h-1.1h-0.8
			c0,0-0.4,1.1-0.4,1.4c0,0.4-0.4,1.9-0.4,1.9l-1.1,1.2h-1.6v2.7l-0.8,1.7l-2.2-0.7v1.7l2.5,0.5l0.7,0.6h-1.1l1.8,1L343.8,47.3z"/>
		<path class="st4" d="M343.8,47.3l0.7-3.5l-0.7-1.7l3.9-1.3l2.8-1.9l1.1-1.9l1.1-2.3h-2.3c0,0-2.8-0.5-2.8,0v1.7h-1.1h-0.8
			c0,0-0.4,1.1-0.4,1.4c0,0.4-0.4,1.9-0.4,1.9l-1.1,1.2h-1.6v2.7l-0.8,1.7l-2.2-0.7v1.7l2.5,0.5l0.7,0.6h-1.1l1.8,1L343.8,47.3z"/>
		<path class="st4" d="M361.1,33.5h0.8V34v1.2c0,0-0.2-0.7-0.4,0c-0.2,0.7,0,1.3,0,1.3L361.1,33.5z"/>
		<path class="st4" d="M361.1,33.5h0.8V34v1.2c0,0-0.2-0.7-0.4,0c-0.2,0.7,0,1.3,0,1.3L361.1,33.5z"/>
		<path class="st4" d="M255.8,126.1l1.8-1c0,0,1.8-0.8,2.3-0.8c0.5,0,1.2-1.3,1.2-1.3l0.4-4.3c0,0-0.7-1.4,0-1.3
			c0.7,0.1,4.1,0,4.1,0l1.8-2.5V113l3.6-1.8h2.6c0,0-1.3-0.2,1.2-0.2c2.5,0,2.9,1.2,2.9,1.2s1.9,1.5,2.6,1.7c0.7,0.2,1,2.1,1.7,2.5
			c0.7,0.4,3.7,2.7,3.7,2.7l0.6-0.7l-0.8-2.1c0,0-2.5-2.2-3.1-2.7c-0.5-0.5-1.2-2.4-1.2-2.4l0.3-1.9c0,0,2.5-1.9,3.3,0
			c0.8,1.9,2.3,3.9,2.8,4c0.5,0.1,2,1.7,2.1,2.1c0.1,0.4,0.8,3.4,0.8,3.4s-0.2,2.6,0.5,2.8c0.7,0.2,1.5,1.9,1.9,1.9
			c0.4,0,0.7-0.2,1.6,0.2c0,0.9-0.4,2,0,2c0.4,0,1.1-0.9,1.1-0.9l0.8-1.3l0.9-0.7l-1.6-0.9c0,0-0.1-0.2-0.1-0.7
			c0-0.5,0.2-2.7,0.2-2.7h2.1l1.1-0.8c0,0,1.3,0.1,1.3,0c0-0.1-0.1,0.8,0,0.8c0.1,0,1,0.5,1.6,0.5c0.5,0,0.5,2.8,0.5,2.8v2.2v1.7
			c0,0-0.7,1,0,1.2c0.7,0.2,2.3,0,2.3,0l5.3,0.1h2.3l1.1,4.6l0.5,3.1l-0.9,1.1H310l2.7,4.1l0.8,3.9h1.3l2.3,4.1l2.2,5.1
			c0,0,2.1,2.4,2.1,2.7c0,0.3,0.4,3.7,0.8,3.7c0.4,0,1.9,1.1,2.1,1.6c0.2,0.4,0.7,2.1,0.7,2.1v4.6l1,1.6c0,0,2.3-0.2,2.6,0
			c0.3,0.2,1.9,0.7,1.9,0.7l1.3,0.8l1.7-0.8l0.9-0.9c0,0,0.3-0.1,1-0.1h2.1c0.5,0,1.2-1.3,1.2-1.3l2.1-1.2l-0.8-0.8l0.8-0.8
			c0,0-0.6-1.3,0-1.3c0.6,0,1.9,0.2,1.9,0.2l1.7-0.2v-3.1c0,0,0.3-1.7,0.9-1.7c0.6,0,1.7-0.1,1.7-0.1l1.6-2.3l0-1.5l-0.1-4.3l1-2.6
			l1-0.6l0.5-1.9l1-2l1.1-2.4h4.6l1.4-3.2l2.9-3.2V132c0,0,3.9-1.8,3.9-2.5c0-0.3,1.6-1.2,1.6-2.5c0-0.9,0-1.3,0-2
			c0-0.7-1.9-0.7-1.9-0.7l-4.4-0.2l-1.9-1.8v2l-6.4,2.8l-0.3,2.2H351l-1.6-0.9l-4.5-3.9h-3.2l-2,1.6l-3.2-0.7l-2-2.1l-0.2-6.2
			l-2.4-2.1l-3-6.4l-0.9-2.2v-2.5h1.1l-1.1-3.4l0.1-2.8l4-3.4l4.9-0.1l2.9,1.3l1.1,1.3h3.4L345,94l0.5-1.9l1.4-2.6l3.6,0.1l2.1-3.6
			h6.3l5.2,2l3.3,1.3l4.4,2.1l-0.3,0c0,0,3.8,0.5,4.7,0.5s3.9,1.7,3.9,1.7l1.4,3.4h2.3v1.6l3.5-2.9l2.8,0.1l2.3,0l2.1,2.1l3.8-0.9
			l1.4-2.3l0.8-1.6l5.7-0.2l1.5,1.1l1.2,3h3.8v-2.2l9.9,1.1v1.1l6.4,0l3.6-2.6l2.9-3.4v-1.2l4.9-0.5l5.1,5.5c0,0,2.2,2.3,6.9,4.3
			c0.6,0.3,1.8,3.5,1.8,3.5l0.3,3l-2.9,0.5l-1.6,1.6l0.7,2.5l3.8,0.2l1.6-1.1h3.8l2.2,1.1l2.9-3.2l2.3-2v-2.7l0.9-0.7v6.1l2.5,1.8
			v-2l2.3-2.5v-3.4l-2-0.5c0,0-0.2-2.3-0.5-3.4c-0.2-1.1-0.9-4.3-0.9-4.3h-3.2l-2.3-0.9V91h-0.9l-0.4,1.4h-2.5l-0.2-2
			c0,0,3.4-2.5,4.1-3.2c0.7-0.7,2.7-4.1,2.7-4.1l4.1-2.3h3.4h8.8h3.2l2-2c0,0-2.5-2.3,1.6-2.3h4.1l1.1,0.9l1.1,1.1l-2.9,2.9
			l-2.7,3.2l-0.7,13.6l2.3-2l-0.9-2.3l3.2-0.2l1.8-4.5v-6.8l2.7-2.3h4.1l6.6-2l4.3-3.6h2.9l1.8-3.2v-5c0,0,2.5,0.7,3.2,0
			c0.7-0.7,1.1,0.9,1.8,0.9c0.7,0,4.3,3.2,4.3,3.2l1.8,0.2c0,0,2.9-4,4.7-4.5c1.8-0.5-2.3-3.4-2.3-3.4h-2.7l-2-1.8c0,0,2,1.1,1.4,0
			c-0.7-1.1-3.4-2-3.4-2l-2.7-1.6l-1.6-1.6l-3.2-2.3h-5l-2.9,4.3l-1.8,0.5l-0.9-1.1c0,0-5.4-0.7-7-0.7c-1.6,0-6.1-4.5-6.1-4.5h-9
			l-4.7-3.8l-10.8-1.4l-11.1,2.5l-3.2,1.8l-1.8-1.8l-3.6-1.4v-3.4h-5.7l-2.5,1.6l-3.6-0.2l-2-1.4h-4.5h-5.9h-2.3l-0.7-2.2h2.3
			l2.7-2.1l3.2-1.8v-2.5c0,0-4.3-0.7-5.2,0c-0.9,0.7-4.7,0-4.7,0l-0.5-1.5l-3.2-2.4l-6.1,3.4l-7,0.5h-2.5v1.5h-4.3h-2v1.4h-2.5
			l-1.4,2l-0.5,1.4H383l-1.6,2.6l1.4,1.8l-0.5,1.1l-2.5-1.8l-2.5,0.2l-2.9,2.9l-1.1,1.8v2l2,0.5l-0.2,2l-1.1,2l-2.3,1.6l-1.6-4.3
			l-0.9-2.5l0.5-3.2l-2-4.7l-2.7,0.5l-0.9,2.9l-2.3,1.4l0.8,2.7l2.1,2.5l-0.7,2l-1.9-2.7l-1.8-0.7l-2.5-0.5l-1.6-1.1h-5.4l0.5,2.5
			l-3.6,1.4h-2.9L343,54l-3.2-0.2l-6.8,5.9l-1.6-1.1l-0.2-2.9l-2-1.6l-0.7,1.8v3.2l-1.4,1.8l-2.3,0.2l-2-3.2v-1.6l-2.3-1.8l0.5-1.6
			h-6.6l-3.6-0.9l-1.6-2.7h-12.5l-3.9,3.6l-3.9,0.5l-2.1,3.8v2.6l-5.9,3.4l-0.8,3.4l-8.4,3.8l-0.5,2l1.8,2.7l-0.2,2.7l4.5,1.3l3.5-1
			v3.8l2.4,1.6l-0.7,2.7l1.8-2.7l3.4-4.4h2.9l-0.5-3.7l-2.5-2.5l4.1-5.3h1.8v-3.2l1.4-2.5l2.2-1.9v3.4c0,0,1.8-0.1,1.8,0
			c0,0.1-1.8,4.3-1.8,4.3h-2.5v5.3l1.5,3.4h2l2.9-0.2h1.8V77h-3.1c0,0-2.2-0.2-1.6,0.5c0.6,0.7,0,4.1,0,4.1v0.9l-3.7-1.1
			c0,0,0.5-3.6,0-2.4c-0.5,1.2-1.8,6-1.8,6l0.9,2.9l-3.4,1.2l-4.5-1.2h-6.6l-0.2-2.6l-1.4-2.7l-1.8,0.7v4.7l-0.5,3.2l-3.8,0.7
			c0,0-2.3-0.9-2.3,0c0,0.9-6.6,8.4-6.6,8.4l-5.8,1.3l4,4.8l0.2,3.4h-2l-2.2,1.4h-4.6l-3.3,0.2l-0.2,9.5l0.9,2.9l3.4,0h1.4l0.5,1.4
			L255.8,126.1z"/>
		<path class="st5" d="M255.8,135.1l1.8-1c0,0,1.8-0.8,2.3-0.8c0.5,0,1.2-1.3,1.2-1.3l0.4-4.3c0,0-0.7-1.4,0-1.3
			c0.7,0.1,4.1,0,4.1,0l1.8-2.5V122l3.6-1.8h2.6c0,0-1.3-0.2,1.2-0.2c2.5,0,2.9,1.2,2.9,1.2s1.9,1.5,2.6,1.7c0.7,0.2,1,2.1,1.7,2.5
			c0.7,0.4,3.7,2.7,3.7,2.7l0.6-0.7l-0.8-2.1c0,0-2.5-2.2-3.1-2.7c-0.5-0.5-1.2-2.4-1.2-2.4l0.3-1.9c0,0,2.5-1.9,3.3,0
			c0.8,1.9,2.3,3.9,2.8,4c0.5,0.1,2,1.7,2.1,2.1c0.1,0.4,0.8,3.4,0.8,3.4s-0.2,2.6,0.5,2.8c0.7,0.2,1.5,1.9,1.9,1.9
			c0.4,0,0.7-0.2,1.6,0.2c0,0.9-0.4,2,0,2c0.4,0,1.1-0.9,1.1-0.9l0.8-1.3l0.9-0.7l-1.6-0.9c0,0-0.1-0.2-0.1-0.7
			c0-0.5,0.2-2.7,0.2-2.7h2.1l1.1-0.8c0,0,1.3,0.1,1.3,0c0-0.1-0.1,0.8,0,0.8c0.1,0,1,0.5,1.6,0.5c0.5,0,0.5,2.8,0.5,2.8v2.2v1.7
			c0,0-0.7,1,0,1.2c0.7,0.2,2.3,0,2.3,0l5.3,0.1h2.3l1.1,4.6l0.5,3.1l-0.9,1.1H310l2.7,4.1l0.8,3.9h1.3l2.3,4.1l2.2,5.1
			c0,0,2.1,2.4,2.1,2.7c0,0.3,0.4,3.7,0.8,3.7c0.4,0,1.9,1.1,2.1,1.6c0.2,0.4,0.7,2.1,0.7,2.1v4.6l1,1.6c0,0,2.3-0.2,2.6,0
			c0.3,0.2,1.9,0.7,1.9,0.7l1.3,0.8l1.7-0.8l0.9-0.9c0,0,0.3-0.1,1-0.1h2.1c0.5,0,1.2-1.3,1.2-1.3l2.1-1.2l-0.8-0.8l0.8-0.8
			c0,0-0.6-1.3,0-1.3c0.6,0,1.9,0.2,1.9,0.2l1.7-0.2v-3.1c0,0,0.3-1.7,0.9-1.7c0.6,0,1.7-0.1,1.7-0.1l1.6-2.3l0-1.5l-0.1-4.3l1-2.6
			l1-0.6l0.5-1.9l1-2l1.1-2.4h4.6l1.4-3.2l2.9-3.2V141c0,0,3.9-1.8,3.9-2.5c0-0.3,1.6-1.2,1.6-2.5c0-0.9,0-1.3,0-2
			c0-0.7-1.9-0.7-1.9-0.7l-4.4-0.2l-1.9-1.8v2l-6.4,2.8l-0.3,2.2H351l-1.6-0.9l-4.5-3.9h-3.2l-2,1.6l-3.2-0.7l-2-2.1l-0.2-6.2
			l-2.4-2.1l-3-6.4l-0.9-2.2v-2.5h1.1l-1.1-3.4l0.1-2.8l4-3.4l4.9-0.1l2.9,1.3l1.1,1.3h3.4l0.7-2.7l0.5-1.9l1.4-2.6l3.6,0.1l2.1-3.6
			h6.3l5.2,2l3.3,1.3l4.4,2.1l-0.3,0c0,0,3.8,0.5,4.7,0.5s3.9,1.7,3.9,1.7l1.4,3.4h2.3v1.6l3.5-2.9l2.8,0.1l2.3,0l2.1,2.1l3.8-0.9
			l1.4-2.3l0.8-1.6l5.7-0.2l1.5,1.1l1.2,3h3.8v-2.2l9.9,1.1v1.1l6.4,0l3.6-2.6l2.9-3.4v-1.2l4.9-0.5l5.1,5.5c0,0,2.2,2.3,6.9,4.3
			c0.6,0.3,1.8,3.5,1.8,3.5l0.3,3l-2.9,0.5l-1.6,1.6l0.7,2.5l3.8,0.2l1.6-1.1h3.8l2.2,1.1l2.9-3.2l2.3-2v-2.7l0.9-0.7v6.1l2.5,1.8
			v-2l2.3-2.5v-3.4l-2-0.5c0,0-0.2-2.3-0.5-3.4c-0.2-1.1-0.9-4.3-0.9-4.3h-3.2l-2.3-0.9V100h-0.9l-0.4,1.4h-2.5l-0.2-2
			c0,0,3.4-2.5,4.1-3.2c0.7-0.7,2.7-4.1,2.7-4.1l4.1-2.3h3.4h8.8h3.2l2-2c0,0-2.5-2.3,1.6-2.3h4.1l1.1,0.9l1.1,1.1l-2.9,2.9
			l-2.7,3.2l-0.7,13.6l2.3-2l-0.9-2.3l3.2-0.2l1.8-4.5v-6.8l2.7-2.3h4.1l6.6-2l4.3-3.6h2.9l1.8-3.2v-5c0,0,2.5,0.7,3.2,0
			c0.7-0.7,1.1,0.9,1.8,0.9c0.7,0,4.3,3.2,4.3,3.2l1.8,0.2c0,0,2.9-4,4.7-4.5c1.8-0.5-2.3-3.4-2.3-3.4h-2.7l-2-1.8c0,0,2,1.1,1.4,0
			c-0.7-1.1-3.4-2-3.4-2l-2.7-1.6l-1.6-1.6l-3.2-2.3h-5l-2.9,4.3l-1.8,0.5l-0.9-1.1c0,0-5.4-0.7-7-0.7c-1.6,0-6.1-4.5-6.1-4.5h-9
			l-4.7-3.8l-10.8-1.4l-11.1,2.5l-3.2,1.8l-1.8-1.8l-3.6-1.4v-3.4h-5.7l-2.5,1.6l-3.6-0.2l-2-1.4h-4.5h-5.9h-2.3l-0.7-2.2h2.3
			l2.7-2.1l3.2-1.8v-2.5c0,0-4.3-0.7-5.2,0c-0.9,0.7-4.7,0-4.7,0l-0.5-1.5l-3.2-2.4l-6.1,3.4l-7,0.5h-2.5v1.5h-4.3h-2v1.4h-2.5
			l-1.4,2l-0.5,1.4H383l-1.6,2.6l1.4,1.8l-0.5,1.1l-2.5-1.8l-2.5,0.2l-2.9,2.9l-1.1,1.8v2l2,0.5l-0.2,2l-1.1,2l-2.3,1.6l-1.6-4.3
			l-0.9-2.5l0.5-3.2l-2-4.7l-2.7,0.5l-0.9,2.9l-2.3,1.4l0.8,2.7l2.1,2.5l-0.7,2l-1.9-2.7l-1.8-0.7l-2.5-0.5l-1.6-1.1h-5.4l0.5,2.5
			l-3.6,1.4h-2.9L343,63l-3.2-0.2l-6.8,5.9l-1.6-1.1l-0.2-2.9l-2-1.6l-0.7,1.8v3.2l-1.4,1.8l-2.3,0.2l-2-3.2v-1.6l-2.3-1.8l0.5-1.6
			h-6.6l-3.6-0.9l-1.6-2.7h-12.5l-3.9,3.6l-3.9,0.5l-2.1,3.8v2.6l-5.9,3.4l-0.8,3.4l-8.4,3.8l-0.5,2l1.8,2.7l-0.2,2.7l4.5,1.3l3.5-1
			v3.8l2.4,1.6l-0.7,2.7l1.8-2.7l3.4-4.4h2.9l-0.5-3.7l-2.5-2.5l4.1-5.3h1.8v-3.2l1.4-2.5l2.2-1.9v3.4c0,0,1.8-0.1,1.8,0
			c0,0.1-1.8,4.3-1.8,4.3h-2.5v5.3l1.5,3.4h2l2.9-0.2h1.8V86h-3.1c0,0-2.2-0.2-1.6,0.5c0.6,0.7,0,4.1,0,4.1v0.9l-3.7-1.1
			c0,0,0.5-3.6,0-2.4c-0.5,1.2-1.8,6-1.8,6l0.9,2.9l-3.4,1.2l-4.5-1.2h-6.6l-0.2-2.6l-1.4-2.7l-1.8,0.7v4.7l-0.5,3.2l-3.8,0.7
			c0,0-2.3-0.9-2.3,0c0,0.9-6.6,8.4-6.6,8.4l-5.8,1.3l4,4.8l0.2,3.4h-2l-2.2,1.4h-4.6l-3.3,0.2l-0.2,9.5l0.9,2.9l3.4,0h1.4l0.5,1.4
			L255.8,135.1z"/>
		<path class="st4" d="M438.9,210.4l-0.6-1c0,0-0.4-0.7,0-0.7c0.4,0,0.6,0.8,0.6,0.8V210.4z"/>
		<path class="st4" d="M438.9,210.4l-0.6-1c0,0-0.4-0.7,0-0.7c0.4,0,0.6,0.8,0.6,0.8V210.4z"/>
		<path class="st4" d="M351,146.4v-2.1l1-2l1.1-2.4h4.6l1.4-3.2l2.9-3.2V131l3.9-2.5l1.6-2.5v-2l-2.5-0.9h-3.9l-1.9-1.8v2l-3,0.9
			l-3.6,2v2H351l-2-1.1l-3-2.9l-1.2-1.6h-2.7l-2.8-1.4l-0.2-2.4l-0.8-2.5l-1.1-0.6l0.6-4.9l-0.4-2.4l0.5-2l-2-1.1l-0.1,1.1l-2.5,0.9
			l-0.1,1.8l-3.1,0.3l-1.2-2.5l-0.6-1.5v-2.5h1.1l-1.1-1.8v-4.1l4.1-3.7l2.8,0l2.1,0l2.9,1.3l1.1,1.3h3.4L345,93l0.5-1.9l1.4-2.6
			l3.6,0.1l2.1-3.6h6.3l3.1,0.9l2.1,1.1l8.4,3.2l5.2,0.9l2.5,1.4l1.4,3.4h2.3v1.6l1.8-1.6l1.7-1.2l4.4,0.1l2.7,2l3.8-0.9l2-3.4
			l5.9-0.7l1.5,1.1l1.2,3h3.8v-2.2l9.9,1.4v0.8l6.4,0l4.1-2.9l2.5-2.7v-1.6l2.3-0.2h2.7l2.9,2.9l4.3,4.5l4.7,2.1l2,4.5v2l-2.9,0.5
			l-1.6,1.6l0.7,2.5l3.8,0.2l1.6-1.1h3.8l1.8,0.7l-0.9,5.4l-2.9,1.6l-6.1,2.3l-2.9,1.4l0.5,3.6l-0.5,5v3.6l-2.7-0.2l-0.9-3.6
			l-2.7-2.3l0.5-4.3l-4.7-0.5l-1.4,0.5l-2,1.8l0.9,0.9l2.7,2.9l-1.4,2.9l0.9,2.5l1.1,3.2v7.5v4.7l-7.9,5.9H428l-1.8,1.8l-4.1,1.8
			h-4.5v5.2h2.3l1.1,2.9l0.5,2h-3.8l0.2,8.4l-2.3,1.8l-3.2-3.2l-2.7-2.7l-1.4,1.4l1.8,7.5l1.8,1.8l1.4,2c0,0,0.2-0.2,0.2,2v3.6
			l-2,1.1l-0.7-1.4l-1.1,0.2v2l3.2,2l2.9,3.4l0.2,2.7v4.5h5.2l1.1,1.6h1.1v2.3l0.2,1.6h-3.8l-2.5-2h-2.5l-2.7-3.4l0.5-1.8l-2-0.7
			l-2.5-2.9l-1.6-3.6l0.2-2l-2.3-3.2l-2-3.2v-2.7l1.6-2c0,0,1.4,2.7,2.3,2.7s1.1,2.5,1.1,2.5l1.4,0.7v-2.9v-1.4l-1.4-2.9l-1.6-0.9
			l-1.4-12l-0.2-3.2l-3.4-0.5l-0.7-4.2l-2.5-1l-0.2-4.7h-2.7l-2.7-0.9l-5.6,5.6l-1.4,2.5l-2.7,0.5l-4.1,4.5l-0.2,7.9l1.6,0.9
			l0.2,2.9l1.4,0.5l0.2,2l-1.4,0.5l-2.5,0.5l0.2-2.9l-1.6-1.1l-1.1,0.7l-1.8-2.9l-0.2-3.8l-4.3-7.5l-1.6-10.2l-1.6,2.5l-3.7-3.4
			l-0.4-3.4l-3.3-3.8l-1.8,0.2L351,146.4z"/>
		<path class="st4" d="M351,146.4v-2.1l1-2l1.1-2.4h4.6l1.4-3.2l2.9-3.2V131l3.9-2.5l1.6-2.5v-2l-2.5-0.9h-3.9l-1.9-1.8v2l-3,0.9
			l-3.6,2v2H351l-2-1.1l-3-2.9l-1.2-1.6h-2.7l-2.8-1.4l-0.2-2.4l-0.8-2.5l-1.1-0.6l0.6-4.9l-0.4-2.4l0.5-2l-2-1.1l-0.1,1.1l-2.5,0.9
			l-0.1,1.8l-3.1,0.3l-1.2-2.5l-0.6-1.5v-2.5h1.1l-1.1-1.8v-4.1l4.1-3.7l2.8,0l2.1,0l2.9,1.3l1.1,1.3h3.4L345,93l0.5-1.9l1.4-2.6
			l3.6,0.1l2.1-3.6h6.3l3.1,0.9l2.1,1.1l8.4,3.2l5.2,0.9l2.5,1.4l1.4,3.4h2.3v1.6l1.8-1.6l1.7-1.2l4.4,0.1l2.7,2l3.8-0.9l2-3.4
			l5.9-0.7l1.5,1.1l1.2,3h3.8v-2.2l9.9,1.4v0.8l6.4,0l4.1-2.9l2.5-2.7v-1.6l2.3-0.2h2.7l2.9,2.9l4.3,4.5l4.7,2.1l2,4.5v2l-2.9,0.5
			l-1.6,1.6l0.7,2.5l3.8,0.2l1.6-1.1h3.8l1.8,0.7l-0.9,5.4l-2.9,1.6l-6.1,2.3l-2.9,1.4l0.5,3.6l-0.5,5v3.6l-2.7-0.2l-0.9-3.6
			l-2.7-2.3l0.5-4.3l-4.7-0.5l-1.4,0.5l-2,1.8l0.9,0.9l2.7,2.9l-1.4,2.9l0.9,2.5l1.1,3.2v7.5v4.7l-7.9,5.9H428l-1.8,1.8l-4.1,1.8
			h-4.5v5.2h2.3l1.1,2.9l0.5,2h-3.8l0.2,8.4l-2.3,1.8l-3.2-3.2l-2.7-2.7l-1.4,1.4l1.8,7.5l1.8,1.8l1.4,2c0,0,0.2-0.2,0.2,2v3.6
			l-2,1.1l-0.7-1.4l-1.1,0.2v2l3.2,2l2.9,3.4l0.2,2.7v4.5h5.2l1.1,1.6h1.1v2.3l0.2,1.6h-3.8l-2.5-2h-2.5l-2.7-3.4l0.5-1.8l-2-0.7
			l-2.5-2.9l-1.6-3.6l0.2-2l-2.3-3.2l-2-3.2v-2.7l1.6-2c0,0,1.4,2.7,2.3,2.7s1.1,2.5,1.1,2.5l1.4,0.7v-2.9v-1.4l-1.4-2.9l-1.6-0.9
			l-1.4-12l-0.2-3.2l-3.4-0.5l-0.7-4.2l-2.5-1l-0.2-4.7h-2.7l-2.7-0.9l-5.6,5.6l-1.4,2.5l-2.7,0.5l-4.1,4.5l-0.2,7.9l1.6,0.9
			l0.2,2.9l1.4,0.5l0.2,2l-1.4,0.5l-2.5,0.5l0.2-2.9l-1.6-1.1l-1.1,0.7l-1.8-2.9l-0.2-3.8l-4.3-7.5l-1.6-10.2l-1.6,2.5l-3.7-3.4
			l-0.4-3.4l-3.3-3.8l-1.8,0.2L351,146.4z"/>
		<path class="st4" d="M454.6,134.7l-0.8-1.1H453l-1.2-0.8l1.4-0.9c0,0,1.5-0.6,1.4-0.9c-0.1-0.3,0.7-1.1,1-1.1h2.4l1.2-1.3l1.1-1.2
			c0,0-0.5-1.3,0-1.3c0.5,0,2.2-0.6,2.2-0.6l0.5-1.4l1-2v-2.3l1.9-1.1c0,0,0.5,0.9,0.7,0.9c0.3,0,1.7,0.1,1.7,0.1v2.3v2.7l-1.3,0.6
			v2.8l-0.4,1.1l-0.4,1.3l-1.9,0.8l-0.7,0.6l-1.3,0.5h-0.6l-0.4,2.4h-0.5l-2.4-1.1h-1.6l-0.1,0.5l-1.2,0.9L454.6,134.7z"/>
		<path class="st4" d="M454.6,134.7l-0.8-1.1H453l-1.2-0.8l1.4-0.9c0,0,1.5-0.6,1.4-0.9c-0.1-0.3,0.7-1.1,1-1.1h2.4l1.2-1.3l1.1-1.2
			c0,0-0.5-1.3,0-1.3c0.5,0,2.2-0.6,2.2-0.6l0.5-1.4l1-2v-2.3l1.9-1.1c0,0,0.5,0.9,0.7,0.9c0.3,0,1.7,0.1,1.7,0.1v2.3v2.7l-1.3,0.6
			v2.8l-0.4,1.1l-0.4,1.3l-1.9,0.8l-0.7,0.6l-1.3,0.5h-0.6l-0.4,2.4h-0.5l-2.4-1.1h-1.6l-0.1,0.5l-1.2,0.9L454.6,134.7z"/>
		<path class="st4" d="M466,117l0.5-3v-1.5c0,0,0.5-2.2,1.3-2.2h2.6l2.4,2.2c0,0,0.9,0.2,1,0.6c0.1,0.5-1.8,2.8-1.8,2.8l-0.2,1.6
			h-2.8h-2h-1.6L466,117z"/>
		<path class="st4" d="M466,117l0.5-3v-1.5c0,0,0.5-2.2,1.3-2.2h2.6l2.4,2.2c0,0,0.9,0.2,1,0.6c0.1,0.5-1.8,2.8-1.8,2.8l-0.2,1.6
			h-2.8h-2h-1.6L466,117z"/>
		<path class="st4" d="M423.1,161.2h-1.5l-0.8-1.1c0,0-1.4-0.4-1.1-0.6c0.3-0.3,1.7-0.9,1.7-0.9l1.1-0.7c0,0,0.6,0.8,1,0.8
			c0.5,0,0.9,0.9,0.9,0.9v0.7l-1.2,0.1L423.1,161.2z"/>
		<path class="st4" d="M423.1,161.2h-1.5l-0.8-1.1c0,0-1.4-0.4-1.1-0.6c0.3-0.3,1.7-0.9,1.7-0.9l1.1-0.7c0,0,0.6,0.8,1,0.8
			c0.5,0,0.9,0.9,0.9,0.9v0.7l-1.2,0.1L423.1,161.2z"/>
		<path class="st4" d="M436.1,169.7l-1.3-1c0,0-0.7-0.1-1.2-0.7c-0.5-0.6-1.1-1.4-1.1-1.4s1.1,0.1,1.4,0c0.3-0.1,1.4,0.8,1.4,0.8
			s0.3,1,0.8,0.7c0.5-0.3,1.2-1.6,1.2-1.6l1-1.5v-1.9v-2l0.9,1.2c0,0-0.2,1.2,0.4,1.2c0.6,0,0.9,0.3,0.9,0.3v1.6
			c0,0-0.1,0.7-0.4,0.9c-0.3,0.2-1.1,0.7-1.5,1.2l-0.4,0.5l-0.5,1.7h-1.2H436.1z"/>
		<path class="st4" d="M436.1,169.7l-1.3-1c0,0-0.7-0.1-1.2-0.7c-0.5-0.6-1.1-1.4-1.1-1.4s1.1,0.1,1.4,0c0.3-0.1,1.4,0.8,1.4,0.8
			s0.3,1,0.8,0.7c0.5-0.3,1.2-1.6,1.2-1.6l1-1.5v-1.9v-2l0.9,1.2c0,0-0.2,1.2,0.4,1.2c0.6,0,0.9,0.3,0.9,0.3v1.6
			c0,0-0.1,0.7-0.4,0.9c-0.3,0.2-1.1,0.7-1.5,1.2l-0.4,0.5l-0.5,1.7h-1.2H436.1z"/>
		<path class="st4" d="M438.6,183l0.8-1c0,0,1.3-0.6,1.1-0.9c-0.2-0.3,0-4.2,0-4.2l-1-1.5l-2.2-1.1l-0.9-1.2l-0.8-1.6l-1.5-0.4
			c0,0,0.6,2.6,0.8,3.2c0.2,0.6,0.2,1.3,0.8,1.7c0.6,0.5,0.6,2.2,0.6,2.2v0.7l-0.8,0.3l0.3,0.8l1.4,0.3l0.7,1.5L438.6,183z"/>
		<path class="st4" d="M438.6,183l0.8-1c0,0,1.3-0.6,1.1-0.9c-0.2-0.3,0-4.2,0-4.2l-1-1.5l-2.2-1.1l-0.9-1.2l-0.8-1.6l-1.5-0.4
			c0,0,0.6,2.6,0.8,3.2c0.2,0.6,0.2,1.3,0.8,1.7c0.6,0.5,0.6,2.2,0.6,2.2v0.7l-0.8,0.3l0.3,0.8l1.4,0.3l0.7,1.5L438.6,183z"/>
		<polygon class="st4" points="438.3,173.5 438.3,171.9 439.5,171.9 439.5,173.2 438.9,173.5 		"/>
		<polygon class="st4" points="438.3,173.5 438.3,171.9 439.5,171.9 439.5,173.2 438.9,173.5 		"/>
		<polygon class="st4" points="424.4,200.8 427.1,200.8 427.1,198.9 428.4,198.4 428.4,194 429.2,193.1 429.2,180.9 427.2,180.9 
			426.2,182.2 425.9,183.5 424.4,184.5 423.3,184.5 421.6,187.4 418.8,189.9 418.2,190.8 415.9,190.8 415.9,193.2 417.1,194.1 
			417.2,197.7 418.5,198.7 419.7,198.8 420.6,199.6 422.5,199.6 424.4,199.6 424.4,201.2 		"/>
		<polygon class="st4" points="424.4,200.8 427.1,200.8 427.1,198.9 428.4,198.4 428.4,194 429.2,193.1 429.2,180.9 427.2,180.9 
			426.2,182.2 425.9,183.5 424.4,184.5 423.3,184.5 421.6,187.4 418.8,189.9 418.2,190.8 415.9,190.8 415.9,193.2 417.1,194.1 
			417.2,197.7 418.5,198.7 419.7,198.8 420.6,199.6 422.5,199.6 424.4,199.6 424.4,201.2 		"/>
		<path class="st4" d="M430.4,202.6l-0.2-0.4l-1-1.9l0.6-2.8l0.6-1.4l1.5-0.8v-1.1l1.2-1.6V191l2.8-0.5l3.7,0.5v1.5
			c0,0-0.2,0.3-0.6,0.3c-0.5,0-4.5,0.1-4.5,0.1l-1.8,1.5l0.5,1.6l2.4,1.1l0.1,2c0,0,0.4,1.4,1,1.4c0.6,0,0.9,0.4,0.9,0.4l-0.5,1.8
			l-1.2-0.4l-0.2,0.4h-0.4l-2.1-0.9l-0.5-0.5l-0.5,1.4H430.4z"/>
		<path class="st4" d="M430.4,202.6l-0.2-0.4l-1-1.9l0.6-2.8l0.6-1.4l1.5-0.8v-1.1l1.2-1.6V191l2.8-0.5l3.7,0.5v1.5
			c0,0-0.2,0.3-0.6,0.3c-0.5,0-4.5,0.1-4.5,0.1l-1.8,1.5l0.5,1.6l2.4,1.1l0.1,2c0,0,0.4,1.4,1,1.4c0.6,0,0.9,0.4,0.9,0.4l-0.5,1.8
			l-1.2-0.4l-0.2,0.4h-0.4l-2.1-0.9l-0.5-0.5l-0.5,1.4H430.4z"/>
		<polygon class="st4" points="444.5,194.5 444.5,193.8 443.3,192.7 443.3,191.8 444.5,191.8 445.6,192.5 445.6,193.6 445.6,194.2 
					"/>
		<polygon class="st4" points="444.5,194.5 444.5,193.8 443.3,192.7 443.3,191.8 444.5,191.8 445.6,192.5 445.6,193.6 445.6,194.2 
					"/>
		<path class="st4" d="M456.6,207.2v-2.9l-0.6-1.7l-0.9-0.7l-1-1.4l-1.6-0.5l-1.8-1.5v-1.1l-2-0.9v-1l0.9-1l1.2,0.4
			c0,0,0.1,2.1,0.4,2.1c0.3,0,2.1,0.2,2.1,0.2l3.8,0.7c0,0,1.7,0.2,2,0.2c0.4,0,2.3,0.1,2.5,0.1c0.2,0,0.8-0.4,0.9,0.4
			c0.1,0.7,0.5,2.2,0.5,2.7v2.4l0.9,0.8v2.7v1.5v0.8h-2.3l-1.3-1.6h-2.5L456.6,207.2z"/>
		<path class="st4" d="M456.6,207.2v-2.9l-0.6-1.7l-0.9-0.7l-1-1.4l-1.6-0.5l-1.8-1.5v-1.1l-2-0.9v-1l0.9-1l1.2,0.4
			c0,0,0.1,2.1,0.4,2.1c0.3,0,2.1,0.2,2.1,0.2l3.8,0.7c0,0,1.7,0.2,2,0.2c0.4,0,2.3,0.1,2.5,0.1c0.2,0,0.8-0.4,0.9,0.4
			c0.1,0.7,0.5,2.2,0.5,2.7v2.4l0.9,0.8v2.7v1.5v0.8h-2.3l-1.3-1.6h-2.5L456.6,207.2z"/>
		<path class="st4" d="M437.4,154v-1.5c0,0-0.7-0.4,0-1.1c0.7-0.7,1.5-1.9,1.5-1.9h1v1.5v0.7l-1,1.2L437.4,154z"/>
		<path class="st4" d="M437.4,154v-1.5c0,0-0.7-0.4,0-1.1c0.7-0.7,1.5-1.9,1.5-1.9h1v1.5v0.7l-1,1.2L437.4,154z"/>
		<path class="st4" d="M444.4,154.4h1.1v0.9C445.6,155.3,444,154.4,444.4,154.4"/>
		<path class="st4" d="M444.4,154.4h1.1v0.9C445.6,155.3,444,154.4,444.4,154.4z"/>
	</g>
	<g class="st0">
		<defs>
			<polyline id="SVGID_93_" points="-27.7,487 -27.7,-24.2 854.2,-24.2 854.2,487 			"/>
		</defs>
		<clipPath id="SVGID_94_">
			<use xlink:href="#SVGID_93_"  style="overflow:visible;"/>
		</clipPath>
	</g>
	<g class="st0">
		<defs>
			<polyline id="SVGID_95_" points="-27.7,487 -27.7,-24.2 854.2,-24.2 854.2,487 			"/>
		</defs>
		<clipPath id="SVGID_96_">
			<use xlink:href="#SVGID_95_"  style="overflow:visible;"/>
		</clipPath>
	</g>
	<g class="st0">
		<defs>
			<polyline id="SVGID_97_" points="-27.7,487 -27.7,-24.2 854.2,-24.2 854.2,487 			"/>
		</defs>
		<clipPath id="SVGID_98_">
			<use xlink:href="#SVGID_97_"  style="overflow:visible;"/>
		</clipPath>
	</g>
	<g class="st0">
		<defs>
			<polyline id="SVGID_99_" points="-27.7,487 -27.7,-24.2 854.2,-24.2 854.2,487 			"/>
		</defs>
		<clipPath id="SVGID_100_">
			<use xlink:href="#SVGID_99_"  style="overflow:visible;"/>
		</clipPath>
	</g>
	<g class="st0">
		<defs>
			<polyline id="SVGID_101_" points="-27.7,487 -27.7,-24.2 854.2,-24.2 854.2,487 			"/>
		</defs>
		<clipPath id="SVGID_102_">
			<use xlink:href="#SVGID_101_"  style="overflow:visible;"/>
		</clipPath>
	</g>
	<g class="st0">
		<defs>
			<polyline id="SVGID_103_" points="-27.7,487 -27.7,-24.2 854.2,-24.2 854.2,487 			"/>
		</defs>
		<clipPath id="SVGID_104_">
			<use xlink:href="#SVGID_103_"  style="overflow:visible;"/>
		</clipPath>
	</g>
	<g class="st0">
		<defs>
			<polyline id="SVGID_105_" points="-27.7,487 -27.7,-24.2 854.2,-24.2 854.2,487 			"/>
		</defs>
		<clipPath id="SVGID_106_">
			<use xlink:href="#SVGID_105_"  style="overflow:visible;"/>
		</clipPath>
	</g>
	<g class="st0">
		<defs>
			<polyline id="SVGID_107_" points="-27.7,487 -27.7,-24.2 854.2,-24.2 854.2,487 			"/>
		</defs>
		<clipPath id="SVGID_108_">
			<use xlink:href="#SVGID_107_"  style="overflow:visible;"/>
		</clipPath>
	</g>
	<g class="st0">
		<defs>
			<polyline id="SVGID_109_" points="-27.7,487 -27.7,-24.2 854.2,-24.2 854.2,487 			"/>
		</defs>
		<clipPath id="SVGID_110_">
			<use xlink:href="#SVGID_109_"  style="overflow:visible;"/>
		</clipPath>
	</g>
	<g class="st0">
		<defs>
			<polyline id="SVGID_111_" points="-27.7,487 -27.7,-24.2 854.2,-24.2 854.2,487 			"/>
		</defs>
		<clipPath id="SVGID_112_">
			<use xlink:href="#SVGID_111_"  style="overflow:visible;"/>
		</clipPath>
	</g>
	<g class="st0">
		<defs>
			<polyline id="SVGID_113_" points="-27.7,487 -27.7,-24.2 854.2,-24.2 854.2,487 			"/>
		</defs>
		<clipPath id="SVGID_114_">
			<use xlink:href="#SVGID_113_"  style="overflow:visible;"/>
		</clipPath>
	</g>
	<g class="st0">
		<defs>
			<polyline id="SVGID_115_" points="-27.7,487 -27.7,-24.2 854.2,-24.2 854.2,487 			"/>
		</defs>
		<clipPath id="SVGID_116_">
			<use xlink:href="#SVGID_115_"  style="overflow:visible;"/>
		</clipPath>
	</g>
	<g class="st0">
		<defs>
			<polyline id="SVGID_117_" points="-27.7,487 -27.7,-24.2 854.2,-24.2 854.2,487 			"/>
		</defs>
		<clipPath id="SVGID_118_">
			<use xlink:href="#SVGID_117_"  style="overflow:visible;"/>
		</clipPath>
	</g>
	<g class="st0">
		<defs>
			<polyline id="SVGID_119_" points="-27.7,487 -27.7,-24.2 854.2,-24.2 854.2,487 			"/>
		</defs>
		<clipPath id="SVGID_120_">
			<use xlink:href="#SVGID_119_"  style="overflow:visible;"/>
		</clipPath>
	</g>
	<g class="st0">
		<defs>
			<polyline id="SVGID_121_" points="-27.7,487 -27.7,-24.2 854.2,-24.2 854.2,487 			"/>
		</defs>
		<clipPath id="SVGID_122_">
			<use xlink:href="#SVGID_121_"  style="overflow:visible;"/>
		</clipPath>
	</g>
	<g class="st0">
		<defs>
			<polyline id="SVGID_123_" points="-27.7,487 -27.7,-24.2 854.2,-24.2 854.2,487 			"/>
		</defs>
		<clipPath id="SVGID_124_">
			<use xlink:href="#SVGID_123_"  style="overflow:visible;"/>
		</clipPath>
	</g>
	<g class="st0">
		<defs>
			<polyline id="SVGID_125_" points="-27.7,487 -27.7,-24.2 854.2,-24.2 854.2,487 			"/>
		</defs>
		<clipPath id="SVGID_126_">
			<use xlink:href="#SVGID_125_"  style="overflow:visible;"/>
		</clipPath>
	</g>
	<g class="st0">
		<defs>
			<polyline id="SVGID_127_" points="-27.7,487 -27.7,-24.2 854.2,-24.2 854.2,487 			"/>
		</defs>
		<clipPath id="SVGID_128_">
			<use xlink:href="#SVGID_127_"  style="overflow:visible;"/>
		</clipPath>
	</g>
	<g class="st0">
		<defs>
			<polyline id="SVGID_129_" points="-27.7,487 -27.7,-24.2 854.2,-24.2 854.2,487 			"/>
		</defs>
		<clipPath id="SVGID_130_">
			<use xlink:href="#SVGID_129_"  style="overflow:visible;"/>
		</clipPath>
	</g>
	<g class="st0">
		<defs>
			<polyline id="SVGID_131_" points="-27.7,487 -27.7,-24.2 854.2,-24.2 854.2,487 			"/>
		</defs>
		<clipPath id="SVGID_132_">
			<use xlink:href="#SVGID_131_"  style="overflow:visible;"/>
		</clipPath>
	</g>
	<g class="st0">
		<defs>
			<polyline id="SVGID_133_" points="-27.7,487 -27.7,-24.2 854.2,-24.2 854.2,487 			"/>
		</defs>
		<clipPath id="SVGID_134_">
			<use xlink:href="#SVGID_133_"  style="overflow:visible;"/>
		</clipPath>
	</g>
	<g class="st0">
		<defs>
			<polyline id="SVGID_135_" points="-27.7,487 -27.7,-24.2 854.2,-24.2 854.2,487 			"/>
		</defs>
		<clipPath id="SVGID_136_">
			<use xlink:href="#SVGID_135_"  style="overflow:visible;"/>
		</clipPath>
	</g>
	<g class="st0">
		<defs>
			<polyline id="SVGID_137_" points="-27.7,487 -27.7,-24.2 854.2,-24.2 854.2,487 			"/>
		</defs>
		<clipPath id="SVGID_138_">
			<use xlink:href="#SVGID_137_"  style="overflow:visible;"/>
		</clipPath>
	</g>
	<g class="st0">
		<defs>
			<polyline id="SVGID_139_" points="-27.7,487 -27.7,-24.2 854.2,-24.2 854.2,487 			"/>
		</defs>
		<clipPath id="SVGID_140_">
			<use xlink:href="#SVGID_139_"  style="overflow:visible;"/>
		</clipPath>
	</g>
	<g class="st0">
		<defs>
			<polyline id="SVGID_141_" points="-27.7,487 -27.7,-24.2 854.2,-24.2 854.2,487 			"/>
		</defs>
		<clipPath id="SVGID_142_">
			<use xlink:href="#SVGID_141_"  style="overflow:visible;"/>
		</clipPath>
	</g>
	<g class="st0">
		<defs>
			<polyline id="SVGID_143_" points="-27.7,487 -27.7,-24.2 854.2,-24.2 854.2,487 			"/>
		</defs>
		<clipPath id="SVGID_144_">
			<use xlink:href="#SVGID_143_"  style="overflow:visible;"/>
		</clipPath>
	</g>
	<g class="st0">
		<defs>
			<polyline id="SVGID_145_" points="-27.7,487 -27.7,-24.2 854.2,-24.2 854.2,487 			"/>
		</defs>
		<clipPath id="SVGID_146_">
			<use xlink:href="#SVGID_145_"  style="overflow:visible;"/>
		</clipPath>
	</g>
	<g class="st0">
		<defs>
			<polyline id="SVGID_147_" points="-27.7,487 -27.7,-24.2 854.2,-24.2 854.2,487 			"/>
		</defs>
		<clipPath id="SVGID_148_">
			<use xlink:href="#SVGID_147_"  style="overflow:visible;"/>
		</clipPath>
	</g>
	<g class="st0">
		<defs>
			<polyline id="SVGID_149_" points="-27.7,487 -27.7,-24.2 854.2,-24.2 854.2,487 			"/>
		</defs>
		<clipPath id="SVGID_150_">
			<use xlink:href="#SVGID_149_"  style="overflow:visible;"/>
		</clipPath>
	</g>
	<g class="st0">
		<defs>
			<polyline id="SVGID_151_" points="-27.7,487 -27.7,-24.2 854.2,-24.2 854.2,487 			"/>
		</defs>
		<clipPath id="SVGID_152_">
			<use xlink:href="#SVGID_151_"  style="overflow:visible;"/>
		</clipPath>
	</g>
	<g class="st0">
		<defs>
			<polyline id="SVGID_153_" points="-27.7,487 -27.7,-24.2 854.2,-24.2 854.2,487 			"/>
		</defs>
		<clipPath id="SVGID_154_">
			<use xlink:href="#SVGID_153_"  style="overflow:visible;"/>
		</clipPath>
	</g>
	<g class="st0">
		<defs>
			<polyline id="SVGID_155_" points="-27.7,487 -27.7,-24.2 854.2,-24.2 854.2,487 			"/>
		</defs>
		<clipPath id="SVGID_156_">
			<use xlink:href="#SVGID_155_"  style="overflow:visible;"/>
		</clipPath>
	</g>
	<g class="st0">
		<defs>
			<polyline id="SVGID_157_" points="-27.7,487 -27.7,-24.2 854.2,-24.2 854.2,487 			"/>
		</defs>
		<clipPath id="SVGID_158_">
			<use xlink:href="#SVGID_157_"  style="overflow:visible;"/>
		</clipPath>
	</g>
	<g class="st0">
		<defs>
			<polyline id="SVGID_159_" points="-27.7,487 -27.7,-24.2 854.2,-24.2 854.2,487 			"/>
		</defs>
		<clipPath id="SVGID_160_">
			<use xlink:href="#SVGID_159_"  style="overflow:visible;"/>
		</clipPath>
	</g>
	<g class="st0">
		<defs>
			<polyline id="SVGID_161_" points="-27.7,487 -27.7,-24.2 854.2,-24.2 854.2,487 			"/>
		</defs>
		<clipPath id="SVGID_162_">
			<use xlink:href="#SVGID_161_"  style="overflow:visible;"/>
		</clipPath>
	</g>
</g>
<circle class="st6" cx="135.3" cy="106.2" r="1.5"/>
<circle class="st6" cx="317.5" cy="87.1" r="1.5"/>
<circle class="st6" cx="317.5" cy="87.1" r="1.5"/>
<circle class="st6" cx="431.3" cy="120" r="1.5"/>
<circle class="st6" cx="431.3" cy="120" r="1.5"/>
<circle class="st6" cx="268.9" cy="102.3" r="1.5"/>
<circle class="st6" cx="268.9" cy="102.3" r="1.5"/>
<circle class="st6" cx="76.3" cy="131.7" r="1.5"/>
<circle class="st6" cx="153.8" cy="255.2" r="1.5"/>
<circle class="st6" cx="153.8" cy="255.2" r="1.5"/>
<circle class="st6" cx="135.3" cy="106.2" r="1.5"/>
</svg>
